<svg width="115" height="26" viewBox="0 0 115 26" fill="none" xmlns="http://www.w3.org/2000/svg">
<path d="M13.2792 17.3163L19.3218 19.6497C19.3218 19.6497 20.921 19.6887 21.9469 19.2477M21.9469 19.2477C21.9469 19.2477 23.0541 18.3233 22.343 17.3163C21.632 16.3093 10.2579 12.6497 10.2579 12.6497C10.2579 12.6497 7.23665 12.6497 4.21537 12.6497C2.54677 12.6497 1.1941 14.983 1.1941 14.983C1.1941 14.983 0.757378 17.8471 1.1941 19.6497C1.63082 21.4522 11.4817 23.4365 14.4838 24.3163C17.4859 25.1961 25.3643 24.1408 25.3643 24.1408C25.3643 24.1408 33.7411 20.2944 34.4282 19.6497C35.1152 19.0049 35.2625 17.9607 34.4282 17.3163C33.5939 16.672 32.5884 16.8726 31.4069 17.3163C30.2253 17.76 25.7265 20.1159 24.7573 20.1159C23.7882 20.1159 23.1268 20.159 21.9469 19.2477Z" stroke="#43A047" stroke-width="2"/>
<path d="M22.7208 8.35018L16.6782 6.01684C16.6782 6.01684 15.079 5.97778 14.0531 6.41877M14.0531 6.41877C14.0531 6.41877 12.9459 7.34319 13.657 8.35018C14.368 9.35717 25.7421 13.0168 25.7421 13.0168C25.7421 13.0168 28.7633 13.0168 31.7846 13.0168C33.4532 13.0168 34.8059 10.6835 34.8059 10.6835C34.8059 10.6835 35.2426 7.81936 34.8059 6.01684C34.3692 4.21433 24.5183 2.22999 21.5162 1.35018C18.5141 0.470369 10.6357 1.5257 10.6357 1.5257C10.6357 1.5257 2.25891 5.37212 1.57185 6.01684C0.884776 6.66157 0.737542 7.70585 1.57185 8.35018C2.40615 8.99451 3.41157 8.79387 4.59312 8.35018C5.77467 7.90649 10.2735 5.55057 11.2427 5.55057C12.2118 5.55057 12.8732 5.50754 14.0531 6.41877Z" stroke="#43A047" stroke-width="2"/>
<mask id="path-3-outside-1_2672_94443" maskUnits="userSpaceOnUse" x="39" y="0.546387" width="76" height="22" fill="black">
<rect fill="white" x="39" y="0.546387" width="76" height="22"/>
<path d="M40.008 21.2104V6.03439C40.008 5.10105 40.3253 4.37305 40.96 3.85039C41.5947 3.32772 42.4627 3.06639 43.564 3.06639C44.6653 3.06639 45.5147 3.30905 46.112 3.79439C46.728 4.27972 47.036 4.98905 47.036 5.92239V19.1664C47.036 19.5584 47.1107 19.8384 47.26 20.0064C47.428 20.1557 47.708 20.2304 48.1 20.2304C48.1 21.2944 47.5027 21.8264 46.308 21.8264C45.3187 21.8264 44.824 21.1824 44.824 19.8944V14.5464H42.22V18.9144L42.332 21.5464C41.6973 21.6397 41.072 21.6864 40.456 21.6864C40.1573 21.6864 40.008 21.5277 40.008 21.2104ZM42.22 6.03439V12.6984H44.824V6.03439C44.824 5.67972 44.7027 5.40905 44.46 5.22239C44.2173 5.01705 43.9 4.91439 43.508 4.91439C43.116 4.91439 42.7987 5.01705 42.556 5.22239C42.332 5.40905 42.22 5.67972 42.22 6.03439ZM52.4722 19.2504C52.4722 19.9597 52.5375 20.7064 52.6682 21.4904C52.1082 21.6024 51.5015 21.6584 50.8482 21.6584C50.5308 21.6584 50.3722 21.5184 50.3722 21.2384V10.0664L49.5042 10.2064C49.3735 9.72105 49.3082 9.30105 49.3082 8.94639C49.3082 8.57305 49.4295 8.38639 49.6722 8.38639H50.3722V4.71839C50.3722 3.87839 50.6242 3.20639 51.1282 2.70239C51.6322 2.19839 52.3695 1.94639 53.3402 1.94639C54.3108 1.94639 55.0762 2.16105 55.6362 2.59039C56.2148 3.00105 56.5042 3.57972 56.5042 4.32639V5.75439C56.5042 6.07172 56.2802 6.29572 55.8322 6.42639C55.6082 6.48239 55.3655 6.51039 55.1042 6.51039C54.8615 6.51039 54.6188 6.48239 54.3762 6.42639C54.4322 6.01572 54.4602 5.57705 54.4602 5.11039V4.94239C54.4602 4.53172 54.3855 4.23305 54.2362 4.04639C54.0868 3.84105 53.8162 3.73839 53.4242 3.73839C53.0508 3.73839 52.7988 3.84105 52.6682 4.04639C52.5375 4.25172 52.4722 4.56905 52.4722 4.99839V8.38639H53.8722L55.3282 8.24639C55.4215 8.73172 55.4682 9.16105 55.4682 9.53439C55.4682 9.88905 55.3468 10.0664 55.1042 10.0664H52.4722V19.2504ZM60.1175 19.2504C60.1175 20.1464 60.1828 20.8931 60.3135 21.4904C59.7535 21.6024 59.1468 21.6584 58.4935 21.6584C58.1761 21.6584 58.0175 21.5184 58.0175 21.2384V10.1504C58.0175 9.75839 57.9428 9.47839 57.7935 9.31039C57.6628 9.14239 57.4015 9.05839 57.0095 9.05839C56.9908 8.57305 57.1121 8.19972 57.3735 7.93839C57.6535 7.67705 58.0455 7.54639 58.5495 7.54639C59.2961 7.54639 59.7628 7.91972 59.9495 8.66639C60.4161 7.91972 61.0788 7.54639 61.9375 7.54639C63.4681 7.54639 64.2335 8.28372 64.2335 9.75839V12.5584C64.2335 12.8757 64.0095 13.0904 63.5615 13.2024C63.3375 13.2771 63.0948 13.3144 62.8335 13.3144C62.5908 13.3144 62.3481 13.2864 62.1055 13.2304C62.1615 12.8197 62.1895 12.3811 62.1895 11.9144V10.4864C62.1895 9.87039 61.9095 9.56239 61.3495 9.56239C61.0881 9.56239 60.8455 9.68372 60.6215 9.92639C60.3975 10.1691 60.2295 10.4397 60.1175 10.7384V19.2504ZM66.3691 18.9704V10.5144C66.3691 9.58105 66.6585 8.85305 67.2371 8.33039C67.8158 7.80772 68.5998 7.54639 69.5891 7.54639C70.5785 7.54639 71.3438 7.78905 71.8851 8.27439C72.4451 8.75972 72.7251 9.46905 72.7251 10.4024V18.8584C72.7251 19.7917 72.4265 20.5197 71.8291 21.0424C71.2505 21.5651 70.4665 21.8264 69.4771 21.8264C68.4878 21.8264 67.7225 21.5837 67.1811 21.0984C66.6398 20.6131 66.3691 19.9037 66.3691 18.9704ZM68.4691 10.4024V18.9704C68.4691 19.2877 68.5718 19.5584 68.7771 19.7824C68.9825 19.9877 69.2345 20.0904 69.5331 20.0904C69.8505 20.0904 70.1118 19.9877 70.3171 19.7824C70.5225 19.5584 70.6251 19.2877 70.6251 18.9704V10.4024C70.6251 10.0851 70.5225 9.82372 70.3171 9.61839C70.1118 9.39439 69.8505 9.28239 69.5331 9.28239C69.2345 9.28239 68.9825 9.39439 68.7771 9.61839C68.5718 9.82372 68.4691 10.0851 68.4691 10.4024ZM77.7936 19.2504C77.7936 20.1651 77.8589 20.9304 77.9896 21.5464C77.4296 21.6211 76.8229 21.6584 76.1696 21.6584C75.8522 21.6584 75.6936 21.5184 75.6936 21.2384V10.1504C75.6936 9.75839 75.6189 9.47839 75.4696 9.31039C75.3389 9.14239 75.0776 9.05839 74.6856 9.05839C74.6669 8.57305 74.7882 8.19972 75.0496 7.93839C75.3296 7.67705 75.7682 7.54639 76.3656 7.54639C76.9816 7.54639 77.4109 7.83572 77.6536 8.41439C78.2322 7.83572 78.9229 7.54639 79.7256 7.54639C80.5469 7.54639 81.1629 7.91039 81.5736 8.63839C82.2082 7.91039 82.9082 7.54639 83.6736 7.54639C84.4576 7.54639 85.0549 7.77972 85.4656 8.24639C85.8762 8.71305 86.0816 9.37572 86.0816 10.2344V19.2224C86.0816 19.6144 86.1469 19.8944 86.2776 20.0624C86.4269 20.2304 86.6976 20.3144 87.0896 20.3144C87.1082 20.7997 86.9776 21.1731 86.6976 21.4344C86.4362 21.6957 86.0442 21.8264 85.5216 21.8264C84.9989 21.8264 84.6069 21.6677 84.3456 21.3504C84.1029 21.0331 83.9816 20.5104 83.9816 19.7824V10.4024C83.9816 9.78639 83.6922 9.47839 83.1136 9.47839C82.6096 9.47839 82.2176 9.76772 81.9376 10.3464V19.2504C81.9376 20.1651 82.0029 20.9304 82.1336 21.5464C81.5736 21.6211 80.9669 21.6584 80.3136 21.6584C79.9962 21.6584 79.8376 21.5184 79.8376 21.2384V10.4024C79.8376 9.78639 79.5482 9.47839 78.9696 9.47839C78.4656 9.47839 78.0736 9.76772 77.7936 10.3464V19.2504ZM91.7951 16.4224C91.1791 16.8331 90.8711 17.5237 90.8711 18.4944C90.8711 19.4464 91.1604 19.9224 91.7391 19.9224C92.3364 19.9224 92.8031 19.5864 93.1391 18.9144V15.5264L91.7951 16.4224ZM92.1031 7.54639C94.1938 7.54639 95.2391 8.47039 95.2391 10.3184V19.2224C95.2391 19.6144 95.3044 19.8944 95.4351 20.0624C95.5844 20.2304 95.8551 20.3144 96.2471 20.3144C96.2658 20.7997 96.1351 21.1731 95.8551 21.4344C95.5938 21.6957 95.2111 21.8264 94.7071 21.8264C93.9231 21.8264 93.4471 21.5371 93.2791 20.9584C92.7004 21.5371 92.0191 21.8264 91.2351 21.8264C90.4511 21.8264 89.8258 21.5277 89.3591 20.9304C88.8924 20.3331 88.6591 19.5304 88.6591 18.5224C88.6591 16.9917 89.3031 15.8344 90.5911 15.0504L93.1391 13.5384V10.5144C93.1391 9.73039 92.7658 9.33839 92.0191 9.33839C91.2911 9.33839 90.9271 9.77705 90.9271 10.6544V11.5784L91.0111 12.8944C90.7684 12.9504 90.5164 12.9784 90.2551 12.9784C90.0124 12.9784 89.7791 12.9411 89.5551 12.8664C89.1071 12.7544 88.8831 12.5397 88.8831 12.2224V9.92639C88.8831 9.17972 89.1724 8.60105 89.7511 8.19039C90.3484 7.76105 91.1324 7.54639 92.1031 7.54639ZM100.528 19.2504C100.528 20.1464 100.594 20.8931 100.724 21.4904C100.164 21.6024 99.5576 21.6584 98.9043 21.6584C98.5869 21.6584 98.4283 21.5184 98.4283 21.2384V10.1504C98.4283 9.75839 98.3536 9.47839 98.2043 9.31039C98.0736 9.14239 97.8123 9.05839 97.4203 9.05839C97.4016 8.57305 97.5229 8.19972 97.7843 7.93839C98.0643 7.67705 98.4563 7.54639 98.9603 7.54639C99.7069 7.54639 100.174 7.91972 100.36 8.66639C100.827 7.91972 101.49 7.54639 102.348 7.54639C103.879 7.54639 104.644 8.28372 104.644 9.75839V12.5584C104.644 12.8757 104.42 13.0904 103.972 13.2024C103.748 13.2771 103.506 13.3144 103.244 13.3144C103.002 13.3144 102.759 13.2864 102.516 13.2304C102.572 12.8197 102.6 12.3811 102.6 11.9144V10.4864C102.6 9.87039 102.32 9.56239 101.76 9.56239C101.499 9.56239 101.256 9.68372 101.032 9.92639C100.808 10.1691 100.64 10.4397 100.528 10.7384V19.2504ZM111.148 10.1224C111.148 9.41305 111.083 8.64772 110.952 7.82639C111.512 7.75172 112.119 7.71439 112.772 7.71439C113.089 7.71439 113.248 7.85439 113.248 8.13439V13.2304C113.248 14.0891 112.968 14.7704 112.408 15.2744C112.968 15.7411 113.248 16.4224 113.248 17.3184V19.2224C113.248 19.6144 113.313 19.8944 113.444 20.0624C113.593 20.2304 113.864 20.3144 114.256 20.3144C114.275 20.7811 114.135 21.1544 113.836 21.4344C113.556 21.6957 113.155 21.8264 112.632 21.8264C112.109 21.8264 111.727 21.6771 111.484 21.3784C111.26 21.0797 111.148 20.5851 111.148 19.8944V17.2904C111.148 16.9544 111.036 16.6837 110.812 16.4784C110.607 16.2731 110.345 16.1704 110.028 16.1704H108.992V19.2504C108.992 20.1464 109.057 20.8931 109.188 21.4904C108.628 21.6024 108.021 21.6584 107.368 21.6584C107.051 21.6584 106.892 21.5184 106.892 21.2384V4.18639C106.892 3.62639 106.808 3.05705 106.64 2.47839C107.2 2.17972 107.797 2.03039 108.432 2.03039C108.805 2.03039 108.992 2.17039 108.992 2.45039V14.4904H110.084C110.364 14.4904 110.607 14.3877 110.812 14.1824C111.036 13.9584 111.148 13.6877 111.148 13.3704V10.1224Z"/>
</mask>
<path d="M40.008 21.2104V6.03439C40.008 5.10105 40.3253 4.37305 40.96 3.85039C41.5947 3.32772 42.4627 3.06639 43.564 3.06639C44.6653 3.06639 45.5147 3.30905 46.112 3.79439C46.728 4.27972 47.036 4.98905 47.036 5.92239V19.1664C47.036 19.5584 47.1107 19.8384 47.26 20.0064C47.428 20.1557 47.708 20.2304 48.1 20.2304C48.1 21.2944 47.5027 21.8264 46.308 21.8264C45.3187 21.8264 44.824 21.1824 44.824 19.8944V14.5464H42.22V18.9144L42.332 21.5464C41.6973 21.6397 41.072 21.6864 40.456 21.6864C40.1573 21.6864 40.008 21.5277 40.008 21.2104ZM42.22 6.03439V12.6984H44.824V6.03439C44.824 5.67972 44.7027 5.40905 44.46 5.22239C44.2173 5.01705 43.9 4.91439 43.508 4.91439C43.116 4.91439 42.7987 5.01705 42.556 5.22239C42.332 5.40905 42.22 5.67972 42.22 6.03439ZM52.4722 19.2504C52.4722 19.9597 52.5375 20.7064 52.6682 21.4904C52.1082 21.6024 51.5015 21.6584 50.8482 21.6584C50.5308 21.6584 50.3722 21.5184 50.3722 21.2384V10.0664L49.5042 10.2064C49.3735 9.72105 49.3082 9.30105 49.3082 8.94639C49.3082 8.57305 49.4295 8.38639 49.6722 8.38639H50.3722V4.71839C50.3722 3.87839 50.6242 3.20639 51.1282 2.70239C51.6322 2.19839 52.3695 1.94639 53.3402 1.94639C54.3108 1.94639 55.0762 2.16105 55.6362 2.59039C56.2148 3.00105 56.5042 3.57972 56.5042 4.32639V5.75439C56.5042 6.07172 56.2802 6.29572 55.8322 6.42639C55.6082 6.48239 55.3655 6.51039 55.1042 6.51039C54.8615 6.51039 54.6188 6.48239 54.3762 6.42639C54.4322 6.01572 54.4602 5.57705 54.4602 5.11039V4.94239C54.4602 4.53172 54.3855 4.23305 54.2362 4.04639C54.0868 3.84105 53.8162 3.73839 53.4242 3.73839C53.0508 3.73839 52.7988 3.84105 52.6682 4.04639C52.5375 4.25172 52.4722 4.56905 52.4722 4.99839V8.38639H53.8722L55.3282 8.24639C55.4215 8.73172 55.4682 9.16105 55.4682 9.53439C55.4682 9.88905 55.3468 10.0664 55.1042 10.0664H52.4722V19.2504ZM60.1175 19.2504C60.1175 20.1464 60.1828 20.8931 60.3135 21.4904C59.7535 21.6024 59.1468 21.6584 58.4935 21.6584C58.1761 21.6584 58.0175 21.5184 58.0175 21.2384V10.1504C58.0175 9.75839 57.9428 9.47839 57.7935 9.31039C57.6628 9.14239 57.4015 9.05839 57.0095 9.05839C56.9908 8.57305 57.1121 8.19972 57.3735 7.93839C57.6535 7.67705 58.0455 7.54639 58.5495 7.54639C59.2961 7.54639 59.7628 7.91972 59.9495 8.66639C60.4161 7.91972 61.0788 7.54639 61.9375 7.54639C63.4681 7.54639 64.2335 8.28372 64.2335 9.75839V12.5584C64.2335 12.8757 64.0095 13.0904 63.5615 13.2024C63.3375 13.2771 63.0948 13.3144 62.8335 13.3144C62.5908 13.3144 62.3481 13.2864 62.1055 13.2304C62.1615 12.8197 62.1895 12.3811 62.1895 11.9144V10.4864C62.1895 9.87039 61.9095 9.56239 61.3495 9.56239C61.0881 9.56239 60.8455 9.68372 60.6215 9.92639C60.3975 10.1691 60.2295 10.4397 60.1175 10.7384V19.2504ZM66.3691 18.9704V10.5144C66.3691 9.58105 66.6585 8.85305 67.2371 8.33039C67.8158 7.80772 68.5998 7.54639 69.5891 7.54639C70.5785 7.54639 71.3438 7.78905 71.8851 8.27439C72.4451 8.75972 72.7251 9.46905 72.7251 10.4024V18.8584C72.7251 19.7917 72.4265 20.5197 71.8291 21.0424C71.2505 21.5651 70.4665 21.8264 69.4771 21.8264C68.4878 21.8264 67.7225 21.5837 67.1811 21.0984C66.6398 20.6131 66.3691 19.9037 66.3691 18.9704ZM68.4691 10.4024V18.9704C68.4691 19.2877 68.5718 19.5584 68.7771 19.7824C68.9825 19.9877 69.2345 20.0904 69.5331 20.0904C69.8505 20.0904 70.1118 19.9877 70.3171 19.7824C70.5225 19.5584 70.6251 19.2877 70.6251 18.9704V10.4024C70.6251 10.0851 70.5225 9.82372 70.3171 9.61839C70.1118 9.39439 69.8505 9.28239 69.5331 9.28239C69.2345 9.28239 68.9825 9.39439 68.7771 9.61839C68.5718 9.82372 68.4691 10.0851 68.4691 10.4024ZM77.7936 19.2504C77.7936 20.1651 77.8589 20.9304 77.9896 21.5464C77.4296 21.6211 76.8229 21.6584 76.1696 21.6584C75.8522 21.6584 75.6936 21.5184 75.6936 21.2384V10.1504C75.6936 9.75839 75.6189 9.47839 75.4696 9.31039C75.3389 9.14239 75.0776 9.05839 74.6856 9.05839C74.6669 8.57305 74.7882 8.19972 75.0496 7.93839C75.3296 7.67705 75.7682 7.54639 76.3656 7.54639C76.9816 7.54639 77.4109 7.83572 77.6536 8.41439C78.2322 7.83572 78.9229 7.54639 79.7256 7.54639C80.5469 7.54639 81.1629 7.91039 81.5736 8.63839C82.2082 7.91039 82.9082 7.54639 83.6736 7.54639C84.4576 7.54639 85.0549 7.77972 85.4656 8.24639C85.8762 8.71305 86.0816 9.37572 86.0816 10.2344V19.2224C86.0816 19.6144 86.1469 19.8944 86.2776 20.0624C86.4269 20.2304 86.6976 20.3144 87.0896 20.3144C87.1082 20.7997 86.9776 21.1731 86.6976 21.4344C86.4362 21.6957 86.0442 21.8264 85.5216 21.8264C84.9989 21.8264 84.6069 21.6677 84.3456 21.3504C84.1029 21.0331 83.9816 20.5104 83.9816 19.7824V10.4024C83.9816 9.78639 83.6922 9.47839 83.1136 9.47839C82.6096 9.47839 82.2176 9.76772 81.9376 10.3464V19.2504C81.9376 20.1651 82.0029 20.9304 82.1336 21.5464C81.5736 21.6211 80.9669 21.6584 80.3136 21.6584C79.9962 21.6584 79.8376 21.5184 79.8376 21.2384V10.4024C79.8376 9.78639 79.5482 9.47839 78.9696 9.47839C78.4656 9.47839 78.0736 9.76772 77.7936 10.3464V19.2504ZM91.7951 16.4224C91.1791 16.8331 90.8711 17.5237 90.8711 18.4944C90.8711 19.4464 91.1604 19.9224 91.7391 19.9224C92.3364 19.9224 92.8031 19.5864 93.1391 18.9144V15.5264L91.7951 16.4224ZM92.1031 7.54639C94.1938 7.54639 95.2391 8.47039 95.2391 10.3184V19.2224C95.2391 19.6144 95.3044 19.8944 95.4351 20.0624C95.5844 20.2304 95.8551 20.3144 96.2471 20.3144C96.2658 20.7997 96.1351 21.1731 95.8551 21.4344C95.5938 21.6957 95.2111 21.8264 94.7071 21.8264C93.9231 21.8264 93.4471 21.5371 93.2791 20.9584C92.7004 21.5371 92.0191 21.8264 91.2351 21.8264C90.4511 21.8264 89.8258 21.5277 89.3591 20.9304C88.8924 20.3331 88.6591 19.5304 88.6591 18.5224C88.6591 16.9917 89.3031 15.8344 90.5911 15.0504L93.1391 13.5384V10.5144C93.1391 9.73039 92.7658 9.33839 92.0191 9.33839C91.2911 9.33839 90.9271 9.77705 90.9271 10.6544V11.5784L91.0111 12.8944C90.7684 12.9504 90.5164 12.9784 90.2551 12.9784C90.0124 12.9784 89.7791 12.9411 89.5551 12.8664C89.1071 12.7544 88.8831 12.5397 88.8831 12.2224V9.92639C88.8831 9.17972 89.1724 8.60105 89.7511 8.19039C90.3484 7.76105 91.1324 7.54639 92.1031 7.54639ZM100.528 19.2504C100.528 20.1464 100.594 20.8931 100.724 21.4904C100.164 21.6024 99.5576 21.6584 98.9043 21.6584C98.5869 21.6584 98.4283 21.5184 98.4283 21.2384V10.1504C98.4283 9.75839 98.3536 9.47839 98.2043 9.31039C98.0736 9.14239 97.8123 9.05839 97.4203 9.05839C97.4016 8.57305 97.5229 8.19972 97.7843 7.93839C98.0643 7.67705 98.4563 7.54639 98.9603 7.54639C99.7069 7.54639 100.174 7.91972 100.36 8.66639C100.827 7.91972 101.49 7.54639 102.348 7.54639C103.879 7.54639 104.644 8.28372 104.644 9.75839V12.5584C104.644 12.8757 104.42 13.0904 103.972 13.2024C103.748 13.2771 103.506 13.3144 103.244 13.3144C103.002 13.3144 102.759 13.2864 102.516 13.2304C102.572 12.8197 102.6 12.3811 102.6 11.9144V10.4864C102.6 9.87039 102.32 9.56239 101.76 9.56239C101.499 9.56239 101.256 9.68372 101.032 9.92639C100.808 10.1691 100.64 10.4397 100.528 10.7384V19.2504ZM111.148 10.1224C111.148 9.41305 111.083 8.64772 110.952 7.82639C111.512 7.75172 112.119 7.71439 112.772 7.71439C113.089 7.71439 113.248 7.85439 113.248 8.13439V13.2304C113.248 14.0891 112.968 14.7704 112.408 15.2744C112.968 15.7411 113.248 16.4224 113.248 17.3184V19.2224C113.248 19.6144 113.313 19.8944 113.444 20.0624C113.593 20.2304 113.864 20.3144 114.256 20.3144C114.275 20.7811 114.135 21.1544 113.836 21.4344C113.556 21.6957 113.155 21.8264 112.632 21.8264C112.109 21.8264 111.727 21.6771 111.484 21.3784C111.26 21.0797 111.148 20.5851 111.148 19.8944V17.2904C111.148 16.9544 111.036 16.6837 110.812 16.4784C110.607 16.2731 110.345 16.1704 110.028 16.1704H108.992V19.2504C108.992 20.1464 109.057 20.8931 109.188 21.4904C108.628 21.6024 108.021 21.6584 107.368 21.6584C107.051 21.6584 106.892 21.5184 106.892 21.2384V4.18639C106.892 3.62639 106.808 3.05705 106.64 2.47839C107.2 2.17972 107.797 2.03039 108.432 2.03039C108.805 2.03039 108.992 2.17039 108.992 2.45039V14.4904H110.084C110.364 14.4904 110.607 14.3877 110.812 14.1824C111.036 13.9584 111.148 13.6877 111.148 13.3704V10.1224Z" fill="url(#paint0_linear_2672_94443)"/>
<path d="M40.96 3.85039L40.6421 3.46442L40.6421 3.46442L40.96 3.85039ZM46.112 3.79439L45.7967 4.18249L45.8026 4.18713L46.112 3.79439ZM47.26 20.0064L46.8863 20.3386L46.9058 20.3606L46.9278 20.3801L47.26 20.0064ZM48.1 20.2304H48.6V19.7304H48.1V20.2304ZM44.824 14.5464H45.324V14.0464H44.824V14.5464ZM42.22 14.5464V14.0464H41.72V14.5464H42.22ZM42.22 18.9144H41.72V18.925L41.7205 18.9356L42.22 18.9144ZM42.332 21.5464L42.4047 22.0411L42.8507 21.9755L42.8315 21.5251L42.332 21.5464ZM42.22 12.6984H41.72V13.1984H42.22V12.6984ZM44.824 12.6984V13.1984H45.324V12.6984H44.824ZM44.46 5.22239L44.137 5.60408L44.1459 5.6116L44.1551 5.6187L44.46 5.22239ZM42.556 5.22239L42.8761 5.60651L42.879 5.60408L42.556 5.22239ZM40.008 21.2104H40.508V6.03439H40.008H39.508V21.2104H40.008ZM40.008 6.03439H40.508C40.508 5.22775 40.775 4.65048 41.2779 4.23635L40.96 3.85039L40.6421 3.46442C39.8757 4.09562 39.508 4.97436 39.508 6.03439H40.008ZM40.96 3.85039L41.2779 4.23635C41.7966 3.80912 42.5391 3.56639 43.564 3.56639V3.06639V2.56639C42.3862 2.56639 41.3927 2.84632 40.6421 3.46442L40.96 3.85039ZM43.564 3.06639V3.56639C44.5989 3.56639 45.3199 3.79507 45.7967 4.18244L46.112 3.79439L46.4273 3.40633C45.7094 2.82304 44.7318 2.56639 43.564 2.56639V3.06639ZM46.112 3.79439L45.8026 4.18713C46.2748 4.55919 46.536 5.10971 46.536 5.92239H47.036H47.536C47.536 4.8684 47.1812 4.00024 46.4214 3.40164L46.112 3.79439ZM47.036 5.92239H46.536V19.1664H47.036H47.536V5.92239H47.036ZM47.036 19.1664H46.536C46.536 19.5978 46.6136 20.0318 46.8863 20.3386L47.26 20.0064L47.6337 19.6742C47.6077 19.645 47.536 19.519 47.536 19.1664H47.036ZM47.26 20.0064L46.9278 20.3801C47.2346 20.6528 47.6686 20.7304 48.1 20.7304V20.2304V19.7304C47.7474 19.7304 47.6214 19.6586 47.5922 19.6327L47.26 20.0064ZM48.1 20.2304H47.6C47.6 20.6694 47.4794 20.9115 47.3195 21.054C47.1484 21.2063 46.8416 21.3264 46.308 21.3264V21.8264V22.3264C46.9691 22.3264 47.5582 22.1805 47.9845 21.8008C48.4219 21.4113 48.6 20.8554 48.6 20.2304H48.1ZM46.308 21.8264V21.3264C45.9309 21.3264 45.7234 21.2105 45.5915 21.0388C45.4405 20.8422 45.324 20.4884 45.324 19.8944H44.824H44.324C44.324 20.5884 44.4548 21.2006 44.7985 21.648C45.1613 22.1203 45.6958 22.3264 46.308 22.3264V21.8264ZM44.824 19.8944H45.324V14.5464H44.824H44.324V19.8944H44.824ZM44.824 14.5464V14.0464H42.22V14.5464V15.0464H44.824V14.5464ZM42.22 14.5464H41.72V18.9144H42.22H42.72V14.5464H42.22ZM42.22 18.9144L41.7205 18.9356L41.8325 21.5676L42.332 21.5464L42.8315 21.5251L42.7195 18.8931L42.22 18.9144ZM42.332 21.5464L42.2593 21.0517C41.6477 21.1416 41.0467 21.1864 40.456 21.1864V21.6864V22.1864C41.0973 22.1864 41.747 22.1378 42.4047 22.0411L42.332 21.5464ZM40.456 21.6864V21.1864C40.4242 21.1864 40.4176 21.182 40.4269 21.1853C40.432 21.1871 40.4409 21.1909 40.4518 21.1978C40.4628 21.2049 40.4739 21.2139 40.4841 21.2247C40.5055 21.2475 40.5124 21.2669 40.5131 21.269C40.5131 21.269 40.508 21.2521 40.508 21.2104H40.008H39.508C39.508 21.4388 39.5612 21.7032 39.7559 21.9101C39.956 22.1227 40.2216 22.1864 40.456 22.1864V21.6864ZM42.22 6.03439H41.72V12.6984H42.22H42.72V6.03439H42.22ZM42.22 12.6984V13.1984H44.824V12.6984V12.1984H42.22V12.6984ZM44.824 12.6984H45.324V6.03439H44.824H44.324V12.6984H44.824ZM44.824 6.03439H45.324C45.324 5.55231 45.1511 5.12316 44.7649 4.82607L44.46 5.22239L44.1551 5.6187C44.2543 5.69495 44.324 5.80713 44.324 6.03439H44.824ZM44.46 5.22239L44.783 4.84069C44.4304 4.54236 43.9897 4.41439 43.508 4.41439V4.91439V5.41439C43.8103 5.41439 44.0043 5.49175 44.137 5.60408L44.46 5.22239ZM43.508 4.91439V4.41439C43.0263 4.41439 42.5856 4.54236 42.233 4.84069L42.556 5.22239L42.879 5.60408C43.0117 5.49175 43.2057 5.41439 43.508 5.41439V4.91439ZM42.556 5.22239L42.2359 4.83828C41.8733 5.14041 41.72 5.56659 41.72 6.03439H42.22H42.72C42.72 5.79285 42.7907 5.67769 42.8761 5.6065L42.556 5.22239ZM52.6682 21.4904L52.7662 21.9807L53.2409 21.8857L53.1614 21.4082L52.6682 21.4904ZM50.3722 10.0664H50.8722V9.47928L50.2925 9.57277L50.3722 10.0664ZM49.5042 10.2064L49.0213 10.3364L49.1386 10.7718L49.5838 10.7L49.5042 10.2064ZM50.3722 8.38639V8.88639H50.8722V8.38639H50.3722ZM51.1282 2.70239L50.7746 2.34883L51.1282 2.70239ZM55.6362 2.59039L55.3319 2.98719L55.3393 2.9928L55.3468 2.99814L55.6362 2.59039ZM55.8322 6.42639L55.9534 6.91146L55.9628 6.9091L55.9722 6.90639L55.8322 6.42639ZM54.3762 6.42639L53.8807 6.35883L53.8191 6.81097L54.2637 6.91358L54.3762 6.42639ZM54.2362 4.04639L53.8318 4.34047L53.8385 4.34976L53.8457 4.35873L54.2362 4.04639ZM52.6682 4.04639L53.09 4.31483L53.09 4.31482L52.6682 4.04639ZM52.4722 8.38639H51.9722V8.88639H52.4722V8.38639ZM53.8722 8.38639V8.88639H53.8961L53.92 8.88409L53.8722 8.38639ZM55.3282 8.24639L55.8192 8.15196L55.7332 7.70513L55.2803 7.74868L55.3282 8.24639ZM52.4722 10.0664V9.56639H51.9722V10.0664H52.4722ZM52.4722 19.2504H51.9722C51.9722 19.9903 52.0403 20.7646 52.175 21.5726L52.6682 21.4904L53.1614 21.4082C53.0347 20.6482 52.9722 19.9291 52.9722 19.2504H52.4722ZM52.6682 21.4904L52.5701 21.0001C52.0466 21.1048 51.4732 21.1584 50.8482 21.1584V21.6584V22.1584C51.5298 22.1584 52.1697 22.1 52.7662 21.9807L52.6682 21.4904ZM50.8482 21.6584V21.1584C50.804 21.1584 50.784 21.1533 50.781 21.1525C50.7796 21.1521 50.7981 21.1575 50.822 21.1785C50.8335 21.1886 50.8439 21.2005 50.8526 21.2132C50.8611 21.2258 50.8665 21.2371 50.8696 21.2454C50.8757 21.2614 50.8722 21.2624 50.8722 21.2384H50.3722H49.8722C49.8722 21.4728 49.9415 21.7352 50.1603 21.9283C50.3673 22.1109 50.6267 22.1584 50.8482 22.1584V21.6584ZM50.3722 21.2384H50.8722V10.0664H50.3722H49.8722V21.2384H50.3722ZM50.3722 10.0664L50.2925 9.57277L49.4245 9.71277L49.5042 10.2064L49.5838 10.7L50.4518 10.56L50.3722 10.0664ZM49.5042 10.2064L49.987 10.0764C49.8634 9.61736 49.8082 9.24314 49.8082 8.94639H49.3082H48.8082C48.8082 9.35897 48.8836 9.82475 49.0213 10.3364L49.5042 10.2064ZM49.3082 8.94639H49.8082C49.8082 8.87858 49.8138 8.83385 49.8196 8.80726C49.8254 8.78035 49.8291 8.78242 49.8184 8.79888C49.8055 8.81871 49.78 8.84634 49.7411 8.86629C49.7039 8.88534 49.6761 8.88639 49.6722 8.88639V8.38639V7.88639C49.3997 7.88639 49.1423 8.00413 48.9799 8.25389C48.8418 8.46641 48.8082 8.72153 48.8082 8.94639H49.3082ZM49.6722 8.38639V8.88639H50.3722V8.38639V7.88639H49.6722V8.38639ZM50.3722 8.38639H50.8722V4.71839H50.3722H49.8722V8.38639H50.3722ZM50.3722 4.71839H50.8722C50.8722 3.98551 51.0881 3.44957 51.4817 3.05594L51.1282 2.70239L50.7746 2.34883C50.1602 2.9632 49.8722 3.77126 49.8722 4.71839H50.3722ZM51.1282 2.70239L51.4817 3.05594C51.8621 2.67555 52.4529 2.44639 53.3402 2.44639V1.94639V1.44639C52.2861 1.44639 51.4022 1.72122 50.7746 2.34883L51.1282 2.70239ZM53.3402 1.94639V2.44639C54.2415 2.44639 54.8868 2.64591 55.3319 2.98719L55.6362 2.59039L55.9404 2.19358C55.2655 1.6762 54.3801 1.44639 53.3402 1.44639V1.94639ZM55.6362 2.59039L55.3468 2.99814C55.7854 3.3094 56.0042 3.73174 56.0042 4.32639H56.5042H57.0042C57.0042 3.4277 56.6443 2.6927 55.9255 2.18263L55.6362 2.59039ZM56.5042 4.32639H56.0042V5.75439H56.5042H57.0042V4.32639H56.5042ZM56.5042 5.75439H56.0042C56.0042 5.77363 56.001 5.78155 56.0001 5.78371C55.9993 5.78585 55.9959 5.79349 55.9826 5.80683C55.9516 5.83786 55.8709 5.89425 55.6922 5.94639L55.8322 6.42639L55.9722 6.90639C56.2414 6.82786 56.4967 6.70691 56.6897 6.51394C56.8957 6.30799 57.0042 6.0454 57.0042 5.75439H56.5042ZM55.8322 6.42639L55.7109 5.94132C55.5314 5.9862 55.3299 6.01039 55.1042 6.01039V6.51039V7.01039C55.4011 7.01039 55.685 6.97857 55.9534 6.91146L55.8322 6.42639ZM55.1042 6.51039V6.01039C54.9003 6.01039 54.6954 5.98691 54.4886 5.93919L54.3762 6.42639L54.2637 6.91358C54.5423 6.97787 54.8227 7.01039 55.1042 7.01039V6.51039ZM54.3762 6.42639L54.8716 6.49394C54.931 6.0583 54.9602 5.59688 54.9602 5.11039H54.4602H53.9602C53.9602 5.55722 53.9333 5.97313 53.8807 6.35883L54.3762 6.42639ZM54.4602 5.11039H54.9602V4.94239H54.4602H53.9602V5.11039H54.4602ZM54.4602 4.94239H54.9602C54.9602 4.49195 54.8822 4.05355 54.6266 3.73404L54.2362 4.04639L53.8457 4.35873C53.8888 4.41255 53.9602 4.57148 53.9602 4.94239H54.4602ZM54.2362 4.04639L54.6405 3.7523C54.3546 3.35908 53.8865 3.23839 53.4242 3.23839V3.73839V4.23839C53.7458 4.23839 53.8191 4.32302 53.8318 4.34047L54.2362 4.04639ZM53.4242 3.73839V3.23839C52.9764 3.23839 52.5108 3.36241 52.2463 3.77795L52.6682 4.04639L53.09 4.31482C53.0932 4.30983 53.102 4.29546 53.1438 4.27843C53.1921 4.25876 53.2797 4.23839 53.4242 4.23839V3.73839ZM52.6682 4.04639L52.2463 3.77795C52.0388 4.10402 51.9722 4.53736 51.9722 4.99839H52.4722H52.9722C52.9722 4.60075 53.0362 4.39942 53.09 4.31483L52.6682 4.04639ZM52.4722 4.99839H51.9722V8.38639H52.4722H52.9722V4.99839H52.4722ZM52.4722 8.38639V8.88639H53.8722V8.38639V7.88639H52.4722V8.38639ZM53.8722 8.38639L53.92 8.88409L55.376 8.74409L55.3282 8.24639L55.2803 7.74868L53.8243 7.88868L53.8722 8.38639ZM55.3282 8.24639L54.8372 8.34081C54.9263 8.80436 54.9682 9.20101 54.9682 9.53439H55.4682H55.9682C55.9682 9.12109 55.9167 8.65907 55.8192 8.15196L55.3282 8.24639ZM55.4682 9.53439H54.9682C54.9682 9.59613 54.9627 9.63491 54.9579 9.65596C54.9531 9.67704 54.9512 9.67046 54.9645 9.65104C54.98 9.62836 55.0072 9.6018 55.0444 9.58364C55.0794 9.56661 55.1038 9.56639 55.1042 9.56639V10.0664V10.5664C55.3657 10.5664 55.6227 10.4599 55.7898 10.2157C55.9336 10.0056 55.9682 9.75317 55.9682 9.53439H55.4682ZM55.1042 10.0664V9.56639H52.4722V10.0664V10.5664H55.1042V10.0664ZM52.4722 10.0664H51.9722V19.2504H52.4722H52.9722V10.0664H52.4722ZM60.3135 21.4904L60.4115 21.9807L60.9107 21.8808L60.8019 21.3835L60.3135 21.4904ZM57.7935 9.31039L57.3988 9.61736L57.4089 9.63031L57.4198 9.64257L57.7935 9.31039ZM57.0095 9.05839L56.5098 9.0776L56.5283 9.55839H57.0095V9.05839ZM57.3735 7.93839L57.0323 7.57286L57.026 7.57874L57.0199 7.58483L57.3735 7.93839ZM59.9495 8.66639L59.4644 8.78765L59.7498 9.92926L60.3735 8.93139L59.9495 8.66639ZM63.5615 13.2024L63.4402 12.7173L63.4216 12.722L63.4034 12.728L63.5615 13.2024ZM62.1055 13.2304L61.6101 13.1628L61.5484 13.615L61.993 13.7176L62.1055 13.2304ZM60.6215 9.92639L60.9889 10.2655L60.9889 10.2655L60.6215 9.92639ZM60.1175 10.7384L59.6493 10.5628L59.6175 10.6477V10.7384H60.1175ZM60.1175 19.2504H59.6175C59.6175 20.1673 59.684 20.9527 59.825 21.5972L60.3135 21.4904L60.8019 21.3835C60.6816 20.8334 60.6175 20.1254 60.6175 19.2504H60.1175ZM60.3135 21.4904L60.2154 21.0001C59.6919 21.1048 59.1185 21.1584 58.4935 21.1584V21.6584V22.1584C59.1751 22.1584 59.815 22.1 60.4115 21.9807L60.3135 21.4904ZM58.4935 21.6584V21.1584C58.4493 21.1584 58.4293 21.1533 58.4263 21.1525C58.4249 21.1521 58.4435 21.1575 58.4673 21.1785C58.4788 21.1886 58.4892 21.2005 58.4979 21.2132C58.5064 21.2258 58.5118 21.2371 58.515 21.2454C58.521 21.2614 58.5175 21.2624 58.5175 21.2384H58.0175H57.5175C57.5175 21.4728 57.5868 21.7352 57.8057 21.9283C58.0126 22.1109 58.2721 22.1584 58.4935 22.1584V21.6584ZM58.0175 21.2384H58.5175V10.1504H58.0175H57.5175V21.2384H58.0175ZM58.0175 10.1504H58.5175C58.5175 9.71895 58.4399 9.285 58.1672 8.9782L57.7935 9.31039L57.4198 9.64257C57.4457 9.67177 57.5175 9.79782 57.5175 10.1504H58.0175ZM57.7935 9.31039L58.1881 9.00342C57.907 8.64201 57.4337 8.55839 57.0095 8.55839V9.05839V9.55839C57.1738 9.55839 57.2814 9.5765 57.3465 9.5974C57.409 9.61749 57.4108 9.63286 57.3988 9.61736L57.7935 9.31039ZM57.0095 9.05839L57.5091 9.03917C57.494 8.64705 57.5926 8.42639 57.727 8.29194L57.3735 7.93839L57.0199 7.58483C56.6317 7.97305 56.4876 8.49906 56.5098 9.0776L57.0095 9.05839ZM57.3735 7.93839L57.7146 8.30391C57.8758 8.15346 58.131 8.04639 58.5495 8.04639V7.54639V7.04639C57.9599 7.04639 57.4311 7.20065 57.0323 7.57286L57.3735 7.93839ZM58.5495 7.54639V8.04639C58.8382 8.04639 59.0227 8.11728 59.1471 8.21682C59.2731 8.31762 59.3899 8.48975 59.4644 8.78765L59.9495 8.66639L60.4345 8.54512C60.3224 8.09636 60.1125 7.70849 59.7718 7.43595C59.4296 7.16216 59.0074 7.04639 58.5495 7.04639V7.54639ZM59.9495 8.66639L60.3735 8.93139C60.7516 8.32638 61.2565 8.04639 61.9375 8.04639V7.54639V7.04639C60.9011 7.04639 60.0807 7.51306 59.5255 8.40139L59.9495 8.66639ZM61.9375 7.54639V8.04639C62.6303 8.04639 63.0573 8.21351 63.3126 8.45947C63.5644 8.70208 63.7335 9.10296 63.7335 9.75839H64.2335H64.7335C64.7335 8.93914 64.5199 8.23403 64.0064 7.73931C63.4963 7.24793 62.7753 7.04639 61.9375 7.04639V7.54639ZM64.2335 9.75839H63.7335V12.5584H64.2335H64.7335V9.75839H64.2335ZM64.2335 12.5584H63.7335C63.7335 12.5686 63.7326 12.5749 63.7319 12.5783C63.7313 12.5815 63.7307 12.5829 63.7307 12.5831C63.7306 12.5833 63.7303 12.584 63.7292 12.5856C63.728 12.5873 63.7252 12.5909 63.7195 12.5964C63.6937 12.6211 63.618 12.6729 63.4402 12.7173L63.5615 13.2024L63.6827 13.6875C63.9529 13.6199 64.2132 13.5083 64.4114 13.3184C64.6243 13.1143 64.7335 12.8498 64.7335 12.5584H64.2335ZM63.5615 13.2024L63.4034 12.728C63.2355 12.784 63.0468 12.8144 62.8335 12.8144V13.3144V13.8144C63.1428 13.8144 63.4395 13.7701 63.7196 13.6767L63.5615 13.2024ZM62.8335 13.3144V12.8144C62.6296 12.8144 62.4247 12.7909 62.2179 12.7432L62.1055 13.2304L61.993 13.7176C62.2716 13.7819 62.552 13.8144 62.8335 13.8144V13.3144ZM62.1055 13.2304L62.6009 13.2979C62.6603 12.8623 62.6895 12.4009 62.6895 11.9144H62.1895H61.6895C61.6895 12.3612 61.6626 12.7771 61.6101 13.1628L62.1055 13.2304ZM62.1895 11.9144H62.6895V10.4864H62.1895H61.6895V11.9144H62.1895ZM62.1895 10.4864H62.6895C62.6895 10.1125 62.6055 9.73873 62.3494 9.45705C62.0851 9.16633 61.7195 9.06239 61.3495 9.06239V9.56239V10.0624C61.5395 10.0624 61.5938 10.1124 61.6095 10.1297C61.6334 10.156 61.6895 10.2443 61.6895 10.4864H62.1895ZM61.3495 9.56239V9.06239C60.9137 9.06239 60.5461 9.27086 60.2541 9.58725L60.6215 9.92639L60.9889 10.2655C61.1448 10.0966 61.2626 10.0624 61.3495 10.0624V9.56239ZM60.6215 9.92639L60.2541 9.58725C59.9878 9.8757 59.7848 10.2015 59.6493 10.5628L60.1175 10.7384L60.5856 10.9139C60.6741 10.678 60.8071 10.4624 60.9889 10.2655L60.6215 9.92639ZM60.1175 10.7384H59.6175V19.2504H60.1175H60.6175V10.7384H60.1175ZM67.2371 8.33039L66.902 7.95933L66.902 7.95933L67.2371 8.33039ZM71.8851 8.27439L71.5513 8.64672L71.5577 8.65223L71.8851 8.27439ZM71.8291 21.0424L71.4998 20.6661L71.494 20.6713L71.8291 21.0424ZM67.1811 21.0984L67.5149 20.7261L67.5149 20.7261L67.1811 21.0984ZM68.7771 19.7824L68.4085 20.1202L68.4159 20.1283L68.4236 20.1359L68.7771 19.7824ZM70.3171 19.7824L70.6707 20.1359L70.6784 20.1283L70.6857 20.1202L70.3171 19.7824ZM70.3171 9.61839L69.9485 9.95625L69.9559 9.96426L69.9636 9.97194L70.3171 9.61839ZM68.7771 9.61839L69.1307 9.97194L69.1384 9.96426L69.1457 9.95625L68.7771 9.61839ZM66.3691 18.9704H66.8691V10.5144H66.3691H65.8691V18.9704H66.3691ZM66.3691 10.5144H66.8691C66.8691 9.69215 67.1191 9.11072 67.5723 8.70144L67.2371 8.33039L66.902 7.95933C66.1978 8.59539 65.8691 9.46995 65.8691 10.5144H66.3691ZM67.2371 8.33039L67.5723 8.70144C68.0363 8.28228 68.6892 8.04639 69.5891 8.04639V7.54639V7.04639C68.5104 7.04639 67.5952 7.33316 66.902 7.95933L67.2371 8.33039ZM69.5891 7.54639V8.04639C70.5001 8.04639 71.1304 8.26927 71.5514 8.64667L71.8851 8.27439L72.2189 7.9021C71.5572 7.30884 70.6568 7.04639 69.5891 7.04639V7.54639ZM71.8851 8.27439L71.5577 8.65223C71.9807 9.0189 72.2251 9.57348 72.2251 10.4024H72.7251H73.2251C73.2251 9.36463 72.9095 8.50054 72.2126 7.89654L71.8851 8.27439ZM72.7251 10.4024H72.2251V18.8584H72.7251H73.2251V10.4024H72.7251ZM72.7251 18.8584H72.2251C72.2251 19.6755 71.9693 20.2553 71.4999 20.6661L71.8291 21.0424L72.1584 21.4187C72.8836 20.7841 73.2251 19.908 73.2251 18.8584H72.7251ZM71.8291 21.0424L71.494 20.6713C71.0299 21.0905 70.3771 21.3264 69.4771 21.3264V21.8264V22.3264C70.5558 22.3264 71.471 22.0396 72.1643 21.4134L71.8291 21.0424ZM69.4771 21.8264V21.3264C68.5661 21.3264 67.9359 21.1035 67.5149 20.7261L67.1811 21.0984L66.8474 21.4707C67.5091 22.0639 68.4094 22.3264 69.4771 22.3264V21.8264ZM67.1811 21.0984L67.5149 20.7261C67.1076 20.3609 66.8691 19.8046 66.8691 18.9704H66.3691H65.8691C65.8691 20.0028 66.172 20.8652 66.8474 21.4707L67.1811 21.0984ZM68.4691 10.4024H67.9691V18.9704H68.4691H68.9691V10.4024H68.4691ZM68.4691 18.9704H67.9691C67.9691 19.4067 68.1147 19.7996 68.4085 20.1202L68.7771 19.7824L69.1457 19.4445C69.0289 19.3171 68.9691 19.1687 68.9691 18.9704H68.4691ZM68.7771 19.7824L68.4236 20.1359C68.7256 20.438 69.1061 20.5904 69.5331 20.5904V20.0904V19.5904C69.3628 19.5904 69.2393 19.5374 69.1307 19.4288L68.7771 19.7824ZM69.5331 20.0904V20.5904C69.9695 20.5904 70.3624 20.4442 70.6707 20.1359L70.3171 19.7824L69.9636 19.4288C69.8612 19.5312 69.7314 19.5904 69.5331 19.5904V20.0904ZM70.3171 19.7824L70.6857 20.1202C70.9796 19.7996 71.1251 19.4067 71.1251 18.9704H70.6251H70.1251C70.1251 19.1687 70.0653 19.3171 69.9485 19.4445L70.3171 19.7824ZM70.6251 18.9704H71.1251V10.4024H70.6251H70.1251V18.9704H70.6251ZM70.6251 10.4024H71.1251C71.1251 9.96599 70.9789 9.5731 70.6707 9.26483L70.3171 9.61839L69.9636 9.97194C70.066 10.0743 70.1251 10.2041 70.1251 10.4024H70.6251ZM70.3171 9.61839L70.6857 9.28052C70.381 8.94815 69.9836 8.78239 69.5331 8.78239V9.28239V9.78239C69.7173 9.78239 69.8426 9.84063 69.9485 9.95625L70.3171 9.61839ZM69.5331 9.28239V8.78239C69.0916 8.78239 68.7067 8.95526 68.4085 9.28052L68.7771 9.61839L69.1457 9.95625C69.2582 9.83351 69.3774 9.78239 69.5331 9.78239V9.28239ZM68.7771 9.61839L68.4236 9.26483C68.1153 9.5731 67.9691 9.96599 67.9691 10.4024H68.4691H68.9691C68.9691 10.2041 69.0283 10.0743 69.1307 9.97194L68.7771 9.61839ZM77.9896 21.5464L78.0556 22.042L78.5907 21.9707L78.4787 21.4426L77.9896 21.5464ZM75.4696 9.31039L75.0749 9.61736L75.085 9.63031L75.0959 9.64257L75.4696 9.31039ZM74.6856 9.05839L74.1859 9.0776L74.2044 9.55839H74.6856V9.05839ZM75.0496 7.93839L74.7084 7.57286L74.7021 7.57874L74.696 7.58483L75.0496 7.93839ZM77.6536 8.41439L77.1925 8.60775L77.4805 9.29457L78.0071 8.76794L77.6536 8.41439ZM81.5736 8.63839L81.1381 8.88405L81.4856 9.50014L81.9504 8.96695L81.5736 8.63839ZM85.4656 8.24639L85.0902 8.5767L85.0902 8.5767L85.4656 8.24639ZM86.2776 20.0624L85.8829 20.3694L85.893 20.3823L85.9039 20.3946L86.2776 20.0624ZM87.0896 20.3144L87.5892 20.2952L87.5707 19.8144H87.0896V20.3144ZM86.6976 21.4344L86.3564 21.0689L86.3501 21.0747L86.344 21.0808L86.6976 21.4344ZM84.3456 21.3504L83.9484 21.6541L83.9539 21.6613L83.9596 21.6682L84.3456 21.3504ZM81.9376 10.3464L81.4875 10.1286L81.4376 10.2318V10.3464H81.9376ZM82.1336 21.5464L82.1996 22.042L82.7347 21.9707L82.6227 21.4426L82.1336 21.5464ZM77.7936 10.3464L77.3435 10.1286L77.2936 10.2318V10.3464H77.7936ZM77.7936 19.2504H77.2936C77.2936 20.1858 77.3601 20.9885 77.5004 21.6501L77.9896 21.5464L78.4787 21.4426C78.3577 20.8723 78.2936 20.1444 78.2936 19.2504H77.7936ZM77.9896 21.5464L77.9235 21.0508C77.3885 21.1221 76.8041 21.1584 76.1696 21.1584V21.6584V22.1584C76.8417 22.1584 77.4707 22.12 78.0556 22.042L77.9896 21.5464ZM76.1696 21.6584V21.1584C76.1254 21.1584 76.1054 21.1533 76.1024 21.1525C76.101 21.1521 76.1196 21.1575 76.1434 21.1785C76.1549 21.1886 76.1653 21.2005 76.174 21.2132C76.1825 21.2258 76.1879 21.2371 76.191 21.2454C76.1971 21.2614 76.1936 21.2624 76.1936 21.2384H75.6936H75.1936C75.1936 21.4728 75.2629 21.7352 75.4818 21.9283C75.6887 22.1109 75.9481 22.1584 76.1696 22.1584V21.6584ZM75.6936 21.2384H76.1936V10.1504H75.6936H75.1936V21.2384H75.6936ZM75.6936 10.1504H76.1936C76.1936 9.71895 76.116 9.285 75.8433 8.9782L75.4696 9.31039L75.0959 9.64257C75.1218 9.67177 75.1936 9.79782 75.1936 10.1504H75.6936ZM75.4696 9.31039L75.8642 9.00342C75.5831 8.64201 75.1098 8.55839 74.6856 8.55839V9.05839V9.55839C74.8499 9.55839 74.9575 9.5765 75.0226 9.5974C75.0851 9.61749 75.0869 9.63286 75.0749 9.61736L75.4696 9.31039ZM74.6856 9.05839L75.1852 9.03917C75.1701 8.64705 75.2687 8.42639 75.4031 8.29194L75.0496 7.93839L74.696 7.58483C74.3078 7.97305 74.1637 8.49906 74.1859 9.0776L74.6856 9.05839ZM75.0496 7.93839L75.3907 8.30391C75.5381 8.16639 75.8266 8.04639 76.3656 8.04639V7.54639V7.04639C75.7098 7.04639 75.1211 7.18771 74.7084 7.57286L75.0496 7.93839ZM76.3656 7.54639V8.04639C76.5933 8.04639 76.7527 8.09886 76.8701 8.17802C76.9882 8.25762 77.1008 8.38906 77.1925 8.60775L77.6536 8.41439L78.1147 8.22102C77.9637 7.86105 77.7402 7.55849 77.429 7.34875C77.1171 7.13858 76.7539 7.04639 76.3656 7.04639V7.54639ZM77.6536 8.41439L78.0071 8.76794C78.4941 8.28099 79.0584 8.04639 79.7256 8.04639V7.54639V7.04639C78.7874 7.04639 77.9704 7.39045 77.3 8.06083L77.6536 8.41439ZM79.7256 7.54639V8.04639C80.3625 8.04639 80.8141 8.30974 81.1381 8.88405L81.5736 8.63839L82.0091 8.39273C81.5117 7.51104 80.7312 7.04639 79.7256 7.04639V7.54639ZM81.5736 8.63839L81.9504 8.96695C82.5169 8.31715 83.089 8.04639 83.6736 8.04639V7.54639V7.04639C82.7274 7.04639 81.8995 7.50362 81.1967 8.30982L81.5736 8.63839ZM83.6736 7.54639V8.04639C84.3542 8.04639 84.7982 8.24489 85.0902 8.5767L85.4656 8.24639L85.8409 7.91607C85.3116 7.31455 84.5609 7.04639 83.6736 7.04639V7.54639ZM85.4656 8.24639L85.0902 8.5767C85.3944 8.9224 85.5816 9.4509 85.5816 10.2344H86.0816H86.5816C86.5816 9.30054 86.358 8.50371 85.8409 7.91607L85.4656 8.24639ZM86.0816 10.2344H85.5816V19.2224H86.0816H86.5816V10.2344H86.0816ZM86.0816 19.2224H85.5816C85.5816 19.6438 85.6467 20.0656 85.8829 20.3694L86.2776 20.0624L86.6722 19.7554C86.6471 19.7231 86.5816 19.585 86.5816 19.2224H86.0816ZM86.2776 20.0624L85.9039 20.3946C86.1988 20.7264 86.655 20.8144 87.0896 20.8144V20.3144V19.8144C86.7401 19.8144 86.655 19.7344 86.6513 19.7302L86.2776 20.0624ZM87.0896 20.3144L86.5899 20.3336C86.6046 20.7157 86.503 20.9321 86.3564 21.0689L86.6976 21.4344L87.0387 21.7999C87.4522 21.414 87.6118 20.8838 87.5892 20.2952L87.0896 20.3144ZM86.6976 21.4344L86.344 21.0808C86.2095 21.2153 85.9672 21.3264 85.5216 21.3264V21.8264V22.3264C86.1213 22.3264 86.6629 22.1761 87.0511 21.7879L86.6976 21.4344ZM85.5216 21.8264V21.3264C85.1043 21.3264 84.8731 21.2044 84.7315 21.0325L84.3456 21.3504L83.9596 21.6682C84.3407 22.131 84.8935 22.3264 85.5216 22.3264V21.8264ZM84.3456 21.3504L84.7427 21.0467C84.6026 20.8634 84.4816 20.4797 84.4816 19.7824H83.9816H83.4816C83.4816 20.541 83.6032 21.2027 83.9484 21.6541L84.3456 21.3504ZM83.9816 19.7824H84.4816V10.4024H83.9816H83.4816V19.7824H83.9816ZM83.9816 10.4024H84.4816C84.4816 10.0248 84.3935 9.64863 84.129 9.36705C83.859 9.07959 83.4882 8.97839 83.1136 8.97839V9.47839V9.97839C83.3176 9.97839 83.3808 10.0312 83.4001 10.0517C83.425 10.0781 83.4816 10.1639 83.4816 10.4024H83.9816ZM83.1136 9.47839V8.97839C82.3619 8.97839 81.8235 9.43421 81.4875 10.1286L81.9376 10.3464L82.3876 10.5642C82.6116 10.1012 82.8573 9.97839 83.1136 9.97839V9.47839ZM81.9376 10.3464H81.4376V19.2504H81.9376H82.4376V10.3464H81.9376ZM81.9376 19.2504H81.4376C81.4376 20.1858 81.5041 20.9885 81.6444 21.6501L82.1336 21.5464L82.6227 21.4426C82.5017 20.8723 82.4376 20.1444 82.4376 19.2504H81.9376ZM82.1336 21.5464L82.0675 21.0508C81.5325 21.1221 80.9481 21.1584 80.3136 21.1584V21.6584V22.1584C80.9857 22.1584 81.6147 22.12 82.1996 22.042L82.1336 21.5464ZM80.3136 21.6584V21.1584C80.2694 21.1584 80.2494 21.1533 80.2464 21.1525C80.245 21.1521 80.2636 21.1575 80.2874 21.1785C80.2989 21.1886 80.3093 21.2005 80.318 21.2132C80.3265 21.2258 80.3319 21.2371 80.335 21.2454C80.3411 21.2614 80.3376 21.2624 80.3376 21.2384H79.8376H79.3376C79.3376 21.4728 79.4069 21.7352 79.6258 21.9283C79.8327 22.1109 80.0921 22.1584 80.3136 22.1584V21.6584ZM79.8376 21.2384H80.3376V10.4024H79.8376H79.3376V21.2384H79.8376ZM79.8376 10.4024H80.3376C80.3376 10.0248 80.2495 9.64863 79.985 9.36705C79.715 9.07959 79.3442 8.97839 78.9696 8.97839V9.47839V9.97839C79.1736 9.97839 79.2368 10.0312 79.2561 10.0517C79.281 10.0781 79.3376 10.1639 79.3376 10.4024H79.8376ZM78.9696 9.47839V8.97839C78.2179 8.97839 77.6795 9.43421 77.3435 10.1286L77.7936 10.3464L78.2436 10.5642C78.4676 10.1012 78.7133 9.97839 78.9696 9.97839V9.47839ZM77.7936 10.3464H77.2936V19.2504H77.7936H78.2936V10.3464H77.7936ZM91.7951 16.4224L91.5177 16.0064L91.5177 16.0064L91.7951 16.4224ZM93.1391 18.9144L93.5863 19.138L93.6391 19.0324V18.9144H93.1391ZM93.1391 15.5264H93.6391V14.5921L92.8617 15.1104L93.1391 15.5264ZM95.4351 20.0624L95.0404 20.3694L95.0505 20.3823L95.0614 20.3946L95.4351 20.0624ZM96.2471 20.3144L96.7467 20.2952L96.7282 19.8144H96.2471V20.3144ZM95.8551 21.4344L95.5139 21.0689L95.5076 21.0747L95.5015 21.0808L95.8551 21.4344ZM93.2791 20.9584L93.7593 20.819L93.5235 20.0069L92.9255 20.6048L93.2791 20.9584ZM89.3591 20.9304L89.7531 20.6226L89.7531 20.6226L89.3591 20.9304ZM90.5911 15.0504L90.3359 14.6204L90.3311 14.6233L90.5911 15.0504ZM93.1391 13.5384L93.3943 13.9684L93.6391 13.8231V13.5384H93.1391ZM90.9271 11.5784H90.4271V11.5943L90.4281 11.6102L90.9271 11.5784ZM91.0111 12.8944L91.1235 13.3816L91.5371 13.2861L91.5101 12.8625L91.0111 12.8944ZM89.5551 12.8664L89.7132 12.392L89.695 12.386L89.6764 12.3813L89.5551 12.8664ZM89.7511 8.19039L90.0405 8.59815L90.0429 8.59639L89.7511 8.19039ZM91.7951 16.4224L91.5177 16.0064C90.7205 16.5379 90.3711 17.4145 90.3711 18.4944H90.8711H91.3711C91.3711 17.6329 91.6377 17.1282 92.0724 16.8384L91.7951 16.4224ZM90.8711 18.4944H90.3711C90.3711 19.0048 90.4457 19.4712 90.6608 19.8251C90.9004 20.2192 91.2834 20.4224 91.7391 20.4224V19.9224V19.4224C91.6161 19.4224 91.5651 19.3875 91.5154 19.3057C91.4411 19.1836 91.3711 18.936 91.3711 18.4944H90.8711ZM91.7391 19.9224V20.4224C92.5778 20.4224 93.1917 19.9272 93.5863 19.138L93.1391 18.9144L92.6919 18.6908C92.4145 19.2455 92.095 19.4224 91.7391 19.4224V19.9224ZM93.1391 18.9144H93.6391V15.5264H93.1391H92.6391V18.9144H93.1391ZM93.1391 15.5264L92.8617 15.1104L91.5177 16.0064L91.7951 16.4224L92.0724 16.8384L93.4164 15.9424L93.1391 15.5264ZM92.1031 7.54639V8.04639C93.0855 8.04639 93.7289 8.26482 94.124 8.61401C94.5072 8.95281 94.7391 9.48856 94.7391 10.3184H95.2391H95.7391C95.7391 9.30022 95.4483 8.44997 94.7862 7.86476C94.136 7.28996 93.2114 7.04639 92.1031 7.04639V7.54639ZM95.2391 10.3184H94.7391V19.2224H95.2391H95.7391V10.3184H95.2391ZM95.2391 19.2224H94.7391C94.7391 19.6438 94.8042 20.0656 95.0404 20.3694L95.4351 20.0624L95.8298 19.7554C95.8047 19.7231 95.7391 19.585 95.7391 19.2224H95.2391ZM95.4351 20.0624L95.0614 20.3946C95.3564 20.7264 95.8125 20.8144 96.2471 20.8144V20.3144V19.8144C95.8977 19.8144 95.8125 19.7344 95.8088 19.7302L95.4351 20.0624ZM96.2471 20.3144L95.7475 20.3336C95.7622 20.7157 95.6605 20.9321 95.5139 21.0689L95.8551 21.4344L96.1963 21.7999C96.6097 21.414 96.7694 20.8838 96.7467 20.2952L96.2471 20.3144ZM95.8551 21.4344L95.5015 21.0808C95.3639 21.2184 95.1279 21.3264 94.7071 21.3264V21.8264V22.3264C95.2943 22.3264 95.8236 22.173 96.2086 21.7879L95.8551 21.4344ZM94.7071 21.8264V21.3264C94.3711 21.3264 94.1559 21.2636 94.0218 21.1821C93.8999 21.108 93.8115 20.9989 93.7593 20.819L93.2791 20.9584L92.7989 21.0978C92.9147 21.4966 93.1483 21.8214 93.5024 22.0366C93.8443 22.2445 94.2591 22.3264 94.7071 22.3264V21.8264ZM93.2791 20.9584L92.9255 20.6048C92.4361 21.0943 91.8801 21.3264 91.2351 21.3264V21.8264V22.3264C92.158 22.3264 92.9648 21.9798 93.6326 21.3119L93.2791 20.9584ZM91.2351 21.8264V21.3264C90.5989 21.3264 90.1213 21.0938 89.7531 20.6226L89.3591 20.9304L88.9651 21.2382C89.5302 21.9616 90.3033 22.3264 91.2351 22.3264V21.8264ZM89.3591 20.9304L89.7531 20.6226C89.3748 20.1383 89.1591 19.4556 89.1591 18.5224H88.6591H88.1591C88.1591 19.6052 88.4101 20.5278 88.9651 21.2382L89.3591 20.9304ZM88.6591 18.5224H89.1591C89.1591 17.163 89.7149 16.1691 90.8511 15.4775L90.5911 15.0504L90.3311 14.6233C88.8913 15.4997 88.1591 16.8205 88.1591 18.5224H88.6591ZM90.5911 15.0504L90.8463 15.4804L93.3943 13.9684L93.1391 13.5384L92.8839 13.1084L90.3359 14.6204L90.5911 15.0504ZM93.1391 13.5384H93.6391V10.5144H93.1391H92.6391V13.5384H93.1391ZM93.1391 10.5144H93.6391C93.6391 10.0512 93.5292 9.61104 93.2212 9.28756C92.9087 8.95952 92.4759 8.83839 92.0191 8.83839V9.33839V9.83839C92.309 9.83839 92.4361 9.91325 92.497 9.97721C92.5623 10.0457 92.6391 10.1935 92.6391 10.5144H93.1391ZM92.0191 9.33839V8.83839C91.5509 8.83839 91.1175 8.98391 90.8153 9.3481C90.5279 9.69442 90.4271 10.159 90.4271 10.6544H90.9271H91.4271C91.4271 10.2724 91.5082 10.079 91.5849 9.98667C91.6467 9.9122 91.7593 9.83839 92.0191 9.83839V9.33839ZM90.9271 10.6544H90.4271V11.5784H90.9271H91.4271V10.6544H90.9271ZM90.9271 11.5784L90.4281 11.6102L90.5121 12.9262L91.0111 12.8944L91.5101 12.8625L91.4261 11.5465L90.9271 11.5784ZM91.0111 12.8944L90.8987 12.4072C90.6946 12.4543 90.4804 12.4784 90.2551 12.4784V12.9784V13.4784C90.5524 13.4784 90.8422 13.4465 91.1235 13.3816L91.0111 12.8944ZM90.2551 12.9784V12.4784C90.0647 12.4784 89.8848 12.4492 89.7132 12.392L89.5551 12.8664L89.397 13.3407C89.6734 13.4329 89.9602 13.4784 90.2551 13.4784V12.9784ZM89.5551 12.8664L89.6764 12.3813C89.4985 12.3369 89.4228 12.2851 89.397 12.2604C89.3914 12.2549 89.3886 12.2513 89.3874 12.2496C89.3863 12.248 89.386 12.2473 89.3859 12.2471C89.3858 12.2469 89.3852 12.2455 89.3846 12.2423C89.384 12.2389 89.3831 12.2326 89.3831 12.2224H88.8831H88.3831C88.3831 12.5138 88.4922 12.7783 88.7051 12.9824C88.9033 13.1723 89.1637 13.2839 89.4338 13.3515L89.5551 12.8664ZM88.8831 12.2224H89.3831V9.92639H88.8831H88.3831V12.2224H88.8831ZM88.8831 9.92639H89.3831C89.3831 9.33174 89.6019 8.9094 90.0405 8.59814L89.7511 8.19039L89.4617 7.78263C88.743 8.2927 88.3831 9.0277 88.3831 9.92639H88.8831ZM89.7511 8.19039L90.0429 8.59639C90.5317 8.24505 91.204 8.04639 92.1031 8.04639V7.54639V7.04639C91.0609 7.04639 90.1651 7.27706 89.4593 7.78438L89.7511 8.19039ZM100.724 21.4904L100.822 21.9807L101.321 21.8808L101.213 21.3835L100.724 21.4904ZM98.2043 9.31039L97.8096 9.61736L97.8196 9.63031L97.8305 9.64257L98.2043 9.31039ZM97.4203 9.05839L96.9206 9.0776L96.9391 9.55839H97.4203V9.05839ZM97.7843 7.93839L97.4431 7.57286L97.4368 7.57874L97.4307 7.58483L97.7843 7.93839ZM100.36 8.66639L99.8752 8.78765L100.161 9.92926L100.784 8.93139L100.36 8.66639ZM103.972 13.2024L103.851 12.7173L103.832 12.722L103.814 12.728L103.972 13.2024ZM102.516 13.2304L102.021 13.1628L101.959 13.615L102.404 13.7176L102.516 13.2304ZM101.032 9.92639L101.4 10.2655L101.4 10.2655L101.032 9.92639ZM100.528 10.7384L100.06 10.5628L100.028 10.6477V10.7384H100.528ZM100.528 19.2504H100.028C100.028 20.1673 100.095 20.9527 100.236 21.5972L100.724 21.4904L101.213 21.3835C101.092 20.8334 101.028 20.1254 101.028 19.2504H100.528ZM100.724 21.4904L100.626 21.0001C100.103 21.1048 99.5293 21.1584 98.9043 21.1584V21.6584V22.1584C99.5859 22.1584 100.226 22.1 100.822 21.9807L100.724 21.4904ZM98.9043 21.6584V21.1584C98.8601 21.1584 98.8401 21.1533 98.8371 21.1525C98.8357 21.1521 98.8542 21.1575 98.8781 21.1785C98.8896 21.1886 98.9 21.2005 98.9087 21.2132C98.9172 21.2258 98.9226 21.2371 98.9257 21.2454C98.9318 21.2614 98.9283 21.2624 98.9283 21.2384H98.4283H97.9283C97.9283 21.4728 97.9976 21.7352 98.2164 21.9283C98.4234 22.1109 98.6828 22.1584 98.9043 22.1584V21.6584ZM98.4283 21.2384H98.9283V10.1504H98.4283H97.9283V21.2384H98.4283ZM98.4283 10.1504H98.9283C98.9283 9.71895 98.8507 9.285 98.578 8.9782L98.2043 9.31039L97.8305 9.64257C97.8565 9.67177 97.9283 9.79782 97.9283 10.1504H98.4283ZM98.2043 9.31039L98.5989 9.00342C98.3178 8.64201 97.8445 8.55839 97.4203 8.55839V9.05839V9.55839C97.5846 9.55839 97.6922 9.5765 97.7572 9.5974C97.8198 9.61749 97.8216 9.63286 97.8096 9.61736L98.2043 9.31039ZM97.4203 9.05839L97.9199 9.03917C97.9048 8.64705 98.0034 8.42639 98.1378 8.29194L97.7843 7.93839L97.4307 7.58483C97.0425 7.97305 96.8984 8.49906 96.9206 9.0776L97.4203 9.05839ZM97.7843 7.93839L98.1254 8.30391C98.2866 8.15346 98.5418 8.04639 98.9603 8.04639V7.54639V7.04639C98.3707 7.04639 97.8419 7.20065 97.4431 7.57286L97.7843 7.93839ZM98.9603 7.54639V8.04639C99.249 8.04639 99.4335 8.11728 99.5579 8.21682C99.6839 8.31762 99.8007 8.48975 99.8752 8.78765L100.36 8.66639L100.845 8.54512C100.733 8.09636 100.523 7.70849 100.183 7.43595C99.8404 7.16216 99.4181 7.04639 98.9603 7.04639V7.54639ZM100.36 8.66639L100.784 8.93139C101.162 8.32638 101.667 8.04639 102.348 8.04639V7.54639V7.04639C101.312 7.04639 100.491 7.51306 99.9363 8.40139L100.36 8.66639ZM102.348 7.54639V8.04639C103.041 8.04639 103.468 8.21351 103.723 8.45947C103.975 8.70208 104.144 9.10296 104.144 9.75839H104.644H105.144C105.144 8.93914 104.931 8.23403 104.417 7.73931C103.907 7.24793 103.186 7.04639 102.348 7.04639V7.54639ZM104.644 9.75839H104.144V12.5584H104.644H105.144V9.75839H104.644ZM104.644 12.5584H104.144C104.144 12.5686 104.143 12.5749 104.143 12.5783C104.142 12.5815 104.142 12.5829 104.141 12.5831C104.141 12.5833 104.141 12.584 104.14 12.5856C104.139 12.5873 104.136 12.5909 104.13 12.5964C104.105 12.6211 104.029 12.6729 103.851 12.7173L103.972 13.2024L104.094 13.6875C104.364 13.6199 104.624 13.5083 104.822 13.3184C105.035 13.1143 105.144 12.8498 105.144 12.5584H104.644ZM103.972 13.2024L103.814 12.728C103.646 12.784 103.458 12.8144 103.244 12.8144V13.3144V13.8144C103.554 13.8144 103.85 13.7701 104.13 13.6767L103.972 13.2024ZM103.244 13.3144V12.8144C103.04 12.8144 102.835 12.7909 102.629 12.7432L102.516 13.2304L102.404 13.7176C102.682 13.7819 102.963 13.8144 103.244 13.8144V13.3144ZM102.516 13.2304L103.012 13.2979C103.071 12.8623 103.1 12.4009 103.1 11.9144H102.6H102.1C102.1 12.3612 102.073 12.7771 102.021 13.1628L102.516 13.2304ZM102.6 11.9144H103.1V10.4864H102.6H102.1V11.9144H102.6ZM102.6 10.4864H103.1C103.1 10.1125 103.016 9.73873 102.76 9.45705C102.496 9.16633 102.13 9.06239 101.76 9.06239V9.56239V10.0624C101.95 10.0624 102.005 10.1124 102.02 10.1297C102.044 10.156 102.1 10.2443 102.1 10.4864H102.6ZM101.76 9.56239V9.06239C101.324 9.06239 100.957 9.27086 100.665 9.58725L101.032 9.92639L101.4 10.2655C101.556 10.0966 101.673 10.0624 101.76 10.0624V9.56239ZM101.032 9.92639L100.665 9.58725C100.399 9.8757 100.196 10.2015 100.06 10.5628L100.528 10.7384L100.996 10.9139C101.085 10.678 101.218 10.4624 101.4 10.2655L101.032 9.92639ZM100.528 10.7384H100.028V19.2504H100.528H101.028V10.7384H100.528ZM110.952 7.82639L110.886 7.33077L110.378 7.39854L110.458 7.90494L110.952 7.82639ZM112.408 15.2744L112.073 14.9027L111.644 15.2889L112.088 15.6585L112.408 15.2744ZM113.444 20.0624L113.049 20.3694L113.059 20.3823L113.07 20.3946L113.444 20.0624ZM114.256 20.3144L114.756 20.2944L114.736 19.8144H114.256V20.3144ZM113.836 21.4344L114.177 21.7999L114.178 21.7992L113.836 21.4344ZM111.484 21.3784L111.084 21.6784L111.09 21.6862L111.096 21.6937L111.484 21.3784ZM110.812 16.4784L110.458 16.8319L110.466 16.8396L110.474 16.847L110.812 16.4784ZM108.992 16.1704V15.6704H108.492V16.1704H108.992ZM109.188 21.4904L109.286 21.9807L109.785 21.8808L109.676 21.3835L109.188 21.4904ZM106.64 2.47839L106.405 2.03721L106.047 2.22814L106.16 2.61779L106.64 2.47839ZM108.992 14.4904H108.492V14.9904H108.992V14.4904ZM110.812 14.1824L111.165 14.5359L110.812 14.1824ZM111.148 10.1224H111.648C111.648 9.38271 111.58 8.59084 111.446 7.74783L110.952 7.82639L110.458 7.90494C110.585 8.7046 110.648 9.44339 110.648 10.1224H111.148ZM110.952 7.82639L111.018 8.322C111.553 8.25066 112.137 8.21439 112.772 8.21439V7.71439V7.21439C112.1 7.21439 111.471 7.25278 110.886 7.33077L110.952 7.82639ZM112.772 7.71439V8.21439C112.816 8.21439 112.836 8.21944 112.839 8.22032C112.84 8.22072 112.822 8.21532 112.798 8.19431C112.787 8.18413 112.776 8.17231 112.768 8.1596C112.759 8.14701 112.754 8.13569 112.75 8.12734C112.744 8.11133 112.748 8.11039 112.748 8.13439H113.248H113.748C113.748 7.89995 113.679 7.6376 113.46 7.44447C113.253 7.26187 112.993 7.21439 112.772 7.21439V7.71439ZM113.248 8.13439H112.748V13.2304H113.248H113.748V8.13439H113.248ZM113.248 13.2304H112.748C112.748 13.9692 112.513 14.5073 112.073 14.9027L112.408 15.2744L112.742 15.646C113.423 15.0335 113.748 14.2089 113.748 13.2304H113.248ZM112.408 15.2744L112.088 15.6585C112.508 16.0087 112.748 16.5336 112.748 17.3184H113.248H113.748C113.748 16.3112 113.428 15.4734 112.728 14.8903L112.408 15.2744ZM113.248 17.3184H112.748V19.2224H113.248H113.748V17.3184H113.248ZM113.248 19.2224H112.748C112.748 19.6438 112.813 20.0656 113.049 20.3694L113.444 20.0624L113.839 19.7554C113.813 19.7231 113.748 19.585 113.748 19.2224H113.248ZM113.444 20.0624L113.07 20.3946C113.365 20.7264 113.821 20.8144 114.256 20.8144V20.3144V19.8144C113.906 19.8144 113.821 19.7344 113.818 19.7302L113.444 20.0624ZM114.256 20.3144L113.756 20.3344C113.77 20.6787 113.671 20.9035 113.494 21.0696L113.836 21.4344L114.178 21.7992C114.598 21.4053 114.779 20.8834 114.756 20.2944L114.256 20.3144ZM113.836 21.4344L113.495 21.0689C113.337 21.2164 113.075 21.3264 112.632 21.3264V21.8264V22.3264C113.234 22.3264 113.775 22.175 114.177 21.7999L113.836 21.4344ZM112.632 21.8264V21.3264C112.203 21.3264 111.989 21.2067 111.872 21.0631L111.484 21.3784L111.096 21.6937C111.464 22.1474 112.016 22.3264 112.632 22.3264V21.8264ZM111.484 21.3784L111.884 21.0784C111.76 20.9136 111.648 20.5567 111.648 19.8944H111.148H110.648C110.648 20.6134 110.759 21.2458 111.084 21.6784L111.484 21.3784ZM111.148 19.8944H111.648V17.2904H111.148H110.648V19.8944H111.148ZM111.148 17.2904H111.648C111.648 16.8307 111.489 16.4204 111.15 16.1098L110.812 16.4784L110.474 16.847C110.583 16.947 110.648 17.0781 110.648 17.2904H111.148ZM110.812 16.4784L111.165 16.1248C110.857 15.8166 110.464 15.6704 110.028 15.6704V16.1704V16.6704C110.226 16.6704 110.356 16.7295 110.458 16.8319L110.812 16.4784ZM110.028 16.1704V15.6704H108.992V16.1704V16.6704H110.028V16.1704ZM108.992 16.1704H108.492V19.2504H108.992H109.492V16.1704H108.992ZM108.992 19.2504H108.492C108.492 20.1673 108.558 20.9527 108.699 21.5972L109.188 21.4904L109.676 21.3835C109.556 20.8334 109.492 20.1254 109.492 19.2504H108.992ZM109.188 21.4904L109.09 21.0001C108.566 21.1048 107.993 21.1584 107.368 21.1584V21.6584V22.1584C108.05 22.1584 108.689 22.1 109.286 21.9807L109.188 21.4904ZM107.368 21.6584V21.1584C107.324 21.1584 107.304 21.1533 107.301 21.1525C107.299 21.1521 107.318 21.1575 107.342 21.1785C107.353 21.1886 107.364 21.2005 107.372 21.2132C107.381 21.2258 107.386 21.2371 107.389 21.2454C107.395 21.2614 107.392 21.2624 107.392 21.2384H106.892H106.392C106.392 21.4728 106.461 21.7352 106.68 21.9283C106.887 22.1109 107.146 22.1584 107.368 22.1584V21.6584ZM106.892 21.2384H107.392V4.18639H106.892H106.392V21.2384H106.892ZM106.892 4.18639H107.392C107.392 3.57577 107.3 2.95952 107.12 2.33898L106.64 2.47839L106.16 2.61779C106.316 3.15459 106.392 3.677 106.392 4.18639H106.892ZM106.64 2.47839L106.875 2.91956C107.363 2.65952 107.879 2.53039 108.432 2.53039V2.03039V1.53039C107.715 1.53039 107.037 1.69992 106.405 2.03721L106.64 2.47839ZM108.432 2.03039V2.53039C108.496 2.53039 108.535 2.53652 108.556 2.54171C108.576 2.54676 108.57 2.54863 108.552 2.53539C108.543 2.52864 108.533 2.51916 108.523 2.5068C108.513 2.4944 108.505 2.48158 108.5 2.46971C108.489 2.44591 108.492 2.43541 108.492 2.45039H108.992H109.492C109.492 2.18839 109.397 1.9192 109.152 1.73539C108.934 1.57186 108.667 1.53039 108.432 1.53039V2.03039ZM108.992 2.45039H108.492V14.4904H108.992H109.492V2.45039H108.992ZM108.992 14.4904V14.9904H110.084V14.4904V13.9904H108.992V14.4904ZM110.084 14.4904V14.9904C110.502 14.9904 110.87 14.8312 111.165 14.5359L110.812 14.1824L110.458 13.8288C110.343 13.9443 110.226 13.9904 110.084 13.9904V14.4904ZM110.812 14.1824L111.165 14.5359C111.483 14.218 111.648 13.8201 111.648 13.3704H111.148H110.648C110.648 13.5554 110.588 13.6988 110.458 13.8288L110.812 14.1824ZM111.148 13.3704H111.648V10.1224H111.148H110.648V13.3704H111.148Z" fill="white" mask="url(#path-3-outside-1_2672_94443)"/>
<defs>
<linearGradient id="paint0_linear_2672_94443" x1="39" y1="11.5464" x2="165.977" y2="11.5464" gradientUnits="userSpaceOnUse">
<stop stop-color="#1E1D1D"/>
<stop offset="0.350058" stop-color="#1CA4CD" stop-opacity="0.732706"/>
<stop offset="0.579324" stop-color="#0A4006" stop-opacity="0.572115"/>
<stop offset="0.823804" stop-color="#FCF9FF" stop-opacity="0.176196"/>
<stop offset="1" stop-color="#FEF9F9" stop-opacity="0"/>
</linearGradient>
</defs>
</svg>
