<svg width="20" height="15" viewBox="0 0 20 15" fill="none" xmlns="http://www.w3.org/2000/svg">
<rect x="0.5" y="8.9292" width="18.8092" height="4.677" stroke="#43A047"/>
<path d="M2.75195 0.5H9.10352V2.25195H0.557617C0.785212 1.24911 1.68025 0.500064 2.75195 0.5Z" stroke="#43A047"/>
<rect x="0.5" y="4.71484" width="8.60308" height="1.75209" stroke="#43A047"/>
<mask id="path-4-inside-1_2106_90698" fill="white">
<path d="M19.6564 1.62622C19.8601 1.7858 19.8601 2.04368 19.6564 2.20325L15.4841 5.47139C15.2804 5.63097 14.9512 5.63097 14.7475 5.47139L12.6609 3.83732C12.4572 3.67775 12.4572 3.41987 12.6609 3.26029C12.8646 3.10071 13.1948 3.10071 13.3985 3.26029L15.1011 4.60457L18.9198 1.62622C19.1235 1.46639 19.4527 1.46639 19.6564 1.62622Z"/>
</mask>
<path d="M19.6564 1.62622C19.8601 1.7858 19.8601 2.04368 19.6564 2.20325L15.4841 5.47139C15.2804 5.63097 14.9512 5.63097 14.7475 5.47139L12.6609 3.83732C12.4572 3.67775 12.4572 3.41987 12.6609 3.26029C12.8646 3.10071 13.1948 3.10071 13.3985 3.26029L15.1011 4.60457L18.9198 1.62622C19.1235 1.46639 19.4527 1.46639 19.6564 1.62622Z" fill="#43A047"/>
<path d="M19.6564 1.62622L19.0392 2.41298L19.0398 2.41346L19.6564 1.62622ZM19.6564 2.20325L20.2731 2.99049L19.6564 2.20325ZM15.4841 5.47139L14.8675 4.68415L15.4841 5.47139ZM14.7475 5.47139L15.3641 4.68415L15.364 4.68408L14.7475 5.47139ZM12.6609 3.83732L12.0441 4.62447L12.0443 4.62463L12.6609 3.83732ZM12.6609 3.26029L12.0442 2.4731L12.0441 2.47315L12.6609 3.26029ZM13.3985 3.26029L14.0182 2.47542L14.0151 2.47305L13.3985 3.26029ZM15.1011 4.60457L14.4815 5.38943L15.0974 5.8757L15.7161 5.39309L15.1011 4.60457ZM18.9198 1.62622L19.5348 2.41474L19.537 2.41298L18.9198 1.62622ZM19.6564 1.62622L19.0398 2.41346C18.9298 2.32735 18.8092 2.15418 18.8092 1.91474C18.8092 1.6753 18.9298 1.50212 19.0398 1.41601L19.6564 2.20325L20.2731 2.99049C20.5867 2.74481 20.8092 2.3629 20.8092 1.91474C20.8092 1.46657 20.5867 1.08467 20.2731 0.83898L19.6564 1.62622ZM19.6564 2.20325L19.0398 1.41601L14.8675 4.68415L15.4841 5.47139L16.1008 6.25863L20.2731 2.99049L19.6564 2.20325ZM15.4841 5.47139L14.8675 4.68415C14.9676 4.60577 15.0608 4.59107 15.1158 4.59107C15.1708 4.59107 15.2641 4.60577 15.3641 4.68415L14.7475 5.47139L14.1308 6.25863C14.6967 6.70189 15.5349 6.70189 16.1008 6.25863L15.4841 5.47139ZM14.7475 5.47139L15.364 4.68408L13.2774 3.05002L12.6609 3.83732L12.0443 4.62463L14.1309 6.2587L14.7475 5.47139ZM12.6609 3.83732L13.2776 3.05018C13.3876 3.13634 13.5081 3.3095 13.5081 3.54881C13.5081 3.78811 13.3876 3.96128 13.2776 4.04744L12.6609 3.26029L12.0441 2.47315C11.7305 2.71888 11.5081 3.10077 11.5081 3.54881C11.5081 3.99684 11.7305 4.37873 12.0441 4.62447L12.6609 3.83732ZM12.6609 3.26029L13.2776 4.04749C13.177 4.12625 13.0838 4.14061 13.0297 4.14061C12.9756 4.14061 12.8823 4.12625 12.7818 4.04753L13.3985 3.26029L14.0151 2.47305C13.4493 2.02982 12.6101 2.02976 12.0442 2.4731L12.6609 3.26029ZM13.3985 3.26029L12.7788 4.04516L14.4815 5.38943L15.1011 4.60457L15.7208 3.8197L14.0182 2.47543L13.3985 3.26029ZM15.1011 4.60457L15.7161 5.39309L19.5348 2.41474L18.9198 1.62622L18.3047 0.837702L14.4861 3.81605L15.1011 4.60457ZM18.9198 1.62622L19.537 2.41298C19.4369 2.4915 19.3434 2.50635 19.2881 2.50635C19.2327 2.50635 19.1392 2.4915 19.0392 2.41298L19.6564 1.62622L20.2737 0.839459C19.7076 0.39531 18.8686 0.39531 18.3025 0.839459L18.9198 1.62622Z" fill="#43A047" mask="url(#path-4-inside-1_2106_90698)"/>
</svg>
