<svg width="20" height="15" viewBox="0 0 20 15" fill="none" xmlns="http://www.w3.org/2000/svg">
<rect x="0.5" y="8.9292" width="18.8092" height="4.677" stroke="black" stroke-opacity="0.7"/>
<path d="M2.75195 0.5H9.10352V2.25195H0.557617C0.785212 1.24911 1.68025 0.500064 2.75195 0.5Z" stroke="black" stroke-opacity="0.7"/>
<rect x="0.5" y="4.71484" width="8.60308" height="1.75209" stroke="black" stroke-opacity="0.7"/>
<mask id="path-4-inside-1_2670_94438" fill="white">
<path d="M19.6564 1.6261C19.8601 1.78568 19.8601 2.04355 19.6564 2.20313L15.4841 5.47127C15.2804 5.63085 14.9512 5.63085 14.7475 5.47127L12.6609 3.8372C12.4572 3.67762 12.4572 3.41975 12.6609 3.26017C12.8646 3.10059 13.1948 3.10059 13.3985 3.26017L15.1011 4.60445L18.9198 1.6261C19.1235 1.46627 19.4527 1.46627 19.6564 1.6261Z"/>
</mask>
<path d="M19.6564 1.6261C19.8601 1.78568 19.8601 2.04355 19.6564 2.20313L15.4841 5.47127C15.2804 5.63085 14.9512 5.63085 14.7475 5.47127L12.6609 3.8372C12.4572 3.67762 12.4572 3.41975 12.6609 3.26017C12.8646 3.10059 13.1948 3.10059 13.3985 3.26017L15.1011 4.60445L18.9198 1.6261C19.1235 1.46627 19.4527 1.46627 19.6564 1.6261Z" fill="black" fill-opacity="0.7"/>
<path d="M19.6564 1.6261L19.0392 2.41286L19.0398 2.41334L19.6564 1.6261ZM19.6564 2.20313L20.2731 2.99037L19.6564 2.20313ZM15.4841 5.47127L14.8675 4.68403L15.4841 5.47127ZM14.7475 5.47127L15.3641 4.68403L15.364 4.68396L14.7475 5.47127ZM12.6609 3.8372L12.0441 4.62435L12.0443 4.62451L12.6609 3.8372ZM12.6609 3.26017L12.0442 2.47298L12.0441 2.47302L12.6609 3.26017ZM13.3985 3.26017L14.0182 2.4753L14.0151 2.47293L13.3985 3.26017ZM15.1011 4.60445L14.4815 5.38931L15.0974 5.87558L15.7161 5.39297L15.1011 4.60445ZM18.9198 1.6261L19.5348 2.41462L19.537 2.41286L18.9198 1.6261ZM19.6564 1.6261L19.0398 2.41334C18.9298 2.32723 18.8092 2.15405 18.8092 1.91462C18.8092 1.67518 18.9298 1.502 19.0398 1.41589L19.6564 2.20313L20.2731 2.99037C20.5867 2.74468 20.8092 2.36278 20.8092 1.91462C20.8092 1.46645 20.5867 1.08455 20.2731 0.838858L19.6564 1.6261ZM19.6564 2.20313L19.0398 1.41589L14.8675 4.68403L15.4841 5.47127L16.1008 6.25851L20.2731 2.99037L19.6564 2.20313ZM15.4841 5.47127L14.8675 4.68403C14.9676 4.60565 15.0608 4.59095 15.1158 4.59095C15.1708 4.59095 15.2641 4.60565 15.3641 4.68403L14.7475 5.47127L14.1308 6.25851C14.6967 6.70177 15.5349 6.70177 16.1008 6.25851L15.4841 5.47127ZM14.7475 5.47127L15.364 4.68396L13.2774 3.04989L12.6609 3.8372L12.0443 4.62451L14.1309 6.25858L14.7475 5.47127ZM12.6609 3.8372L13.2776 3.05005C13.3876 3.13622 13.5081 3.30938 13.5081 3.54868C13.5081 3.78799 13.3876 3.96115 13.2776 4.04732L12.6609 3.26017L12.0441 2.47302C11.7305 2.71876 11.5081 3.10065 11.5081 3.54868C11.5081 3.99672 11.7305 4.37861 12.0441 4.62435L12.6609 3.8372ZM12.6609 3.26017L13.2776 4.04736C13.177 4.12613 13.0838 4.14049 13.0297 4.14049C12.9756 4.14049 12.8823 4.12613 12.7818 4.04741L13.3985 3.26017L14.0151 2.47293C13.4493 2.0297 12.6101 2.02963 12.0442 2.47298L12.6609 3.26017ZM13.3985 3.26017L12.7788 4.04503L14.4815 5.38931L15.1011 4.60445L15.7208 3.81958L14.0182 2.4753L13.3985 3.26017ZM15.1011 4.60445L15.7161 5.39297L19.5348 2.41462L18.9198 1.6261L18.3047 0.83758L14.4861 3.81593L15.1011 4.60445ZM18.9198 1.6261L19.537 2.41286C19.4369 2.49138 19.3434 2.50623 19.2881 2.50623C19.2327 2.50623 19.1392 2.49138 19.0392 2.41286L19.6564 1.6261L20.2737 0.839337C19.7076 0.395188 18.8686 0.395188 18.3025 0.839337L18.9198 1.6261Z" fill="black" fill-opacity="0.7" mask="url(#path-4-inside-1_2670_94438)"/>
</svg>
