<svg width="29" height="20" viewBox="0 0 29 20" fill="none" xmlns="http://www.w3.org/2000/svg">
<rect x="0.796173" y="12.3105" width="26.756" height="6.95443" stroke="black"/>
<path d="M4.15262 0.5H13.2513V3.35645H0.833282C1.0746 1.73991 2.46889 0.5 4.15262 0.5Z" stroke="black"/>
<rect x="0.796173" y="6.40552" width="12.4555" height="2.85614" stroke="black"/>
<path d="M27.1141 2.67188C27.2184 2.5901 27.4249 2.59015 27.5292 2.67188H27.5302C27.5343 2.6751 27.537 2.67892 27.5399 2.68164C27.5368 2.6846 27.5347 2.68977 27.5302 2.69336L21.6835 7.27246C21.5791 7.35404 21.3728 7.35402 21.2684 7.27246L18.3446 4.98242C18.34 4.9788 18.337 4.97466 18.3339 4.97168C18.3369 4.96882 18.3402 4.96535 18.3446 4.96191C18.4489 4.8802 18.6572 4.88015 18.7616 4.96191V4.96094L21.1454 6.84375L21.454 7.08691L21.7626 6.8457L27.1132 2.67285L27.1141 2.67188Z" fill="black" stroke="black"/>
</svg>
