<svg width="17" height="16" viewBox="0 0 17 16" fill="none" xmlns="http://www.w3.org/2000/svg">
<path d="M8.41235 0.5C9.90399 0.5 11.2854 2.04353 11.2854 4.18359C11.2852 6.32346 9.90391 7.86621 8.41235 7.86621C6.92082 7.86617 5.53947 6.32343 5.53931 4.18359C5.53931 2.04356 6.92074 0.500038 8.41235 0.5Z" stroke="#43A047"/>
<path d="M7.0946 8.86646H9.51941C12.7715 8.86646 15.4368 11.3732 15.6913 14.5598H0.922729C1.17727 11.3732 3.84251 8.86646 7.0946 8.86646Z" stroke="#43A047"/>
<path d="M4.95551 12.0922C4.95551 12.0922 7.0631 10.8553 8.62151 10.8834C10.0994 10.9101 12.0619 12.0922 12.0619 12.0922" stroke="#43A047" stroke-width="0.5"/>
<path d="M4.95551 13.3014C4.95551 13.3014 7.0631 12.0645 8.62151 12.0926C10.0994 12.1193 12.0619 13.3014 12.0619 13.3014" stroke="#43A047" stroke-width="0.5"/>
</svg>
