<svg width="29" height="20" viewBox="0 0 29 20" fill="none" xmlns="http://www.w3.org/2000/svg">
<rect x="0.71222" y="12.0457" width="27.756" height="7.95443" fill="#43A047"/>
<path d="M0.712219 4.091C0.712219 1.96131 2.43867 0.234863 4.56835 0.234863H14.1677V4.091H0.712219V4.091Z" fill="#43A047"/>
<rect x="0.71222" y="6.14038" width="13.4555" height="3.85614" fill="#43A047"/>
<path d="M28.2541 2.51318C28.5396 2.73677 28.5396 3.0981 28.2541 3.3217L22.4081 7.9009C22.1226 8.1245 21.6613 8.1245 21.3759 7.9009L18.4522 5.6113C18.1669 5.3877 18.1669 5.02638 18.4522 4.80278C18.7376 4.57919 19.2003 4.57919 19.4857 4.80278L21.8714 6.68634L27.2219 2.51318C27.5074 2.28923 27.9687 2.28923 28.2541 2.51318Z" fill="#43A047"/>
</svg>
