<svg width="17" height="17" viewBox="0 0 17 17" fill="none" xmlns="http://www.w3.org/2000/svg">
<path fill-rule="evenodd" clip-rule="evenodd" d="M7.16766 13.2709C10.5562 13.2709 13.3031 10.5239 13.3031 7.13543C13.3031 3.74693 10.5562 1 7.16766 1C3.77915 1 1.03223 3.74693 1.03223 7.13543C1.03223 10.5239 3.77915 13.2709 7.16766 13.2709Z" fill="#43A047"/>
<path d="M13.3444 16.0596L12.9149 16.3155L13.2193 16.8264L13.6703 16.4388L13.3444 16.0596ZM16.0222 13.7588L16.3481 14.138L16.8158 13.7362L16.3259 13.3616L16.0222 13.7588ZM13.3031 7.13543H12.8031C12.8031 10.2478 10.28 12.7709 7.16766 12.7709V13.2709V13.7709C10.8323 13.7709 13.8031 10.8001 13.8031 7.13543H13.3031ZM7.16766 1V1.5C10.28 1.5 12.8031 4.02307 12.8031 7.13543H13.3031H13.8031C13.8031 3.47079 10.8323 0.5 7.16766 0.5V1ZM1.03223 7.13543H1.53223C1.53223 4.02307 4.0553 1.5 7.16766 1.5V1V0.5C3.50301 0.5 0.532227 3.47079 0.532227 7.13543H1.03223ZM7.16766 13.2709V12.7709C4.0553 12.7709 1.53223 10.2478 1.53223 7.13543H1.03223H0.532227C0.532227 10.8001 3.50301 13.7709 7.16766 13.7709V13.2709ZM10.9198 11.9902L10.4902 12.2461L12.9149 16.3155L13.3444 16.0596L13.774 15.8037L11.3493 11.7343L10.9198 11.9902ZM13.3444 16.0596L13.6703 16.4388L16.3481 14.138L16.0222 13.7588L15.6964 13.3796L13.0186 15.6804L13.3444 16.0596ZM16.0222 13.7588L16.3259 13.3616L12.4157 10.3717L12.112 10.7689L11.8083 11.166L15.7185 14.156L16.0222 13.7588Z" fill="#43A047"/>
</svg>
