<svg width="18" height="17" viewBox="0 0 18 17" fill="none" xmlns="http://www.w3.org/2000/svg">
<path d="M13.5972 16.0596L13.1677 16.3155L13.4721 16.8264L13.9231 16.4388L13.5972 16.0596ZM16.275 13.7588L16.6009 14.138L17.0686 13.7362L16.5787 13.3616L16.275 13.7588ZM13.5559 7.13543H13.0559C13.0559 10.2478 10.5328 12.7709 7.42045 12.7709V13.2709V13.7709C11.0851 13.7709 14.0559 10.8001 14.0559 7.13543H13.5559ZM7.42045 1V1.5C10.5328 1.5 13.0559 4.02307 13.0559 7.13543H13.5559H14.0559C14.0559 3.47079 11.0851 0.5 7.42045 0.5V1ZM1.28502 7.13543H1.78502C1.78502 4.02307 4.30809 1.5 7.42045 1.5V1V0.5C3.7558 0.5 0.785019 3.47079 0.785019 7.13543H1.28502ZM7.42045 13.2709V12.7709C4.30809 12.7709 1.78502 10.2478 1.78502 7.13543H1.28502H0.785019C0.785019 10.8001 3.7558 13.7709 7.42045 13.7709V13.2709ZM11.1726 11.9902L10.743 12.2461L13.1677 16.3155L13.5972 16.0596L14.0268 15.8037L11.6021 11.7343L11.1726 11.9902ZM13.5972 16.0596L13.9231 16.4388L16.6009 14.138L16.275 13.7588L15.9492 13.3796L13.2714 15.6804L13.5972 16.0596ZM16.275 13.7588L16.5787 13.3616L12.6685 10.3717L12.3648 10.7689L12.0611 11.166L15.9713 14.156L16.275 13.7588Z" fill="#43A047"/>
</svg>
