<svg width="24" height="15" viewBox="0 0 24 15" fill="none" xmlns="http://www.w3.org/2000/svg">
<path d="M14.3957 9.44789C14.8558 10.0768 14.1394 10.6541 14.1394 10.6541C14.9028 11.2231 15.3308 11.1962 15.9579 11.1962C16.5849 11.1962 19.496 9.72497 20.2605 9.44789C21.025 9.17081 21.6756 9.04551 22.2154 9.44789C22.7553 9.85027 22.66 10.5024 22.2154 10.9051C21.7709 11.3077 16.3506 13.7098 16.3506 13.7098C16.3506 13.7098 11.2528 14.3688 9.31026 13.8194C7.36775 13.2699 0.993625 12.0307 0.711042 10.9051C0.428459 9.77938 0.711042 7.99073 0.711042 7.99073C0.711042 7.99073 1.5863 6.53357 2.66599 6.53357H6.57588C6.57588 6.53357 13.9355 8.81903 14.3957 9.44789Z" fill="#43A047"/>
<path d="M8.53082 9.44789L12.4407 10.9051C12.4407 10.9051 13.4755 10.9294 14.1394 10.6541M14.1394 10.6541C14.1394 10.6541 14.8558 10.0768 14.3957 9.44789C13.9355 8.81903 6.57588 6.53357 6.57588 6.53357C6.57588 6.53357 4.62093 6.53357 2.66599 6.53357C1.5863 6.53357 0.711042 7.99073 0.711042 7.99073C0.711042 7.99073 0.428459 9.77938 0.711042 10.9051C0.993625 12.0307 7.36775 13.2699 9.31026 13.8194C11.2528 14.3688 16.3506 13.7098 16.3506 13.7098C16.3506 13.7098 21.7709 11.3077 22.2154 10.9051C22.66 10.5024 22.7553 9.85027 22.2154 9.44789C21.6756 9.04551 21.025 9.17081 20.2605 9.44789C19.496 9.72497 16.5849 11.1962 15.9579 11.1962C15.3308 11.1962 14.9028 11.2231 14.1394 10.6541Z" stroke="#43A047"/>
<path d="M16.7305 1.14746C17.2252 0.675639 17.9368 0.454521 18.6406 0.566406C19.7051 0.735961 20.4549 1.60546 20.4551 2.59082V2.69434C20.4551 3.28899 20.1965 3.8634 19.7314 4.27637V4.27734L16.3477 7.29004C16.3012 7.33139 16.2346 7.35837 16.1611 7.3584C16.0876 7.3584 16.0211 7.33141 15.9746 7.29004L12.5908 4.27734V4.27637L12.4258 4.11426C12.0649 3.7196 11.8672 3.21462 11.8672 2.69434V2.59082L11.876 2.4082C11.9564 1.56053 12.5898 0.829466 13.4854 0.606445L13.6816 0.566406C14.3854 0.45458 15.0962 0.675763 15.5908 1.14746L15.8164 1.36133L16.1611 1.69043L16.5059 1.36133L16.7305 1.14746Z" fill="#43A047" stroke="#43A047"/>
</svg>
