<svg width="26" height="16" viewBox="0 0 26 16" fill="none" xmlns="http://www.w3.org/2000/svg">
<path d="M9.66768 10.082L13.933 11.6432C13.933 11.6432 15.0619 11.6693 15.7861 11.3743M15.7861 11.3743C15.7861 11.3743 16.5676 10.7557 16.0657 10.082C15.5637 9.40818 7.53501 6.95947 7.53501 6.95947C7.53501 6.95947 5.40234 6.95947 3.26968 6.95947C2.09184 6.95947 1.13701 8.52072 1.13701 8.52072C1.13701 8.52072 0.828738 10.4371 1.13701 11.6432C1.44528 12.8493 8.39887 14.177 10.518 14.7657C12.6371 15.3544 18.1983 14.6482 18.1983 14.6482C18.1983 14.6482 24.1114 12.0746 24.5963 11.6432C25.0813 11.2118 25.1853 10.5131 24.5963 10.082C24.0074 9.65083 23.2977 9.78509 22.4637 10.082C21.6296 10.3788 18.454 11.9552 17.7699 11.9552C17.0858 11.9552 16.6189 11.984 15.7861 11.3743Z" stroke="#43A047"/>
<path d="M18.5783 1.16602C19.128 0.651082 19.9204 0.408718 20.7053 0.53125C21.8931 0.71718 22.7208 1.66778 22.7209 2.73535V2.84668C22.7208 3.4105 22.5031 3.95888 22.1027 4.38867L21.9201 4.56543L18.2287 7.79395C18.1698 7.84545 18.085 7.87891 17.9914 7.87891C17.898 7.87887 17.8139 7.84529 17.7551 7.79395L14.0637 4.56543H14.0627C13.5465 4.11533 13.262 3.49096 13.2619 2.84668V2.73535L13.2717 2.53711C13.3669 1.55206 14.1645 0.705423 15.2785 0.53125C16.0632 0.408842 16.8549 0.651157 17.4045 1.16602L17.6496 1.39551L17.9914 1.71582L18.3332 1.39551L18.5783 1.16602Z" stroke="#43A047"/>
</svg>
