<svg width="24" height="15" viewBox="0 0 24 15" fill="none" xmlns="http://www.w3.org/2000/svg">
<path d="M9.27807 9.44801L13.188 10.9052C13.188 10.9052 14.2228 10.9296 14.8866 10.6542M14.8866 10.6542C14.8866 10.6542 15.603 10.0769 15.1429 9.44801C14.6828 8.81915 7.32313 6.53369 7.32313 6.53369C7.32313 6.53369 5.36818 6.53369 3.41324 6.53369C2.33355 6.53369 1.4583 7.99085 1.4583 7.99085C1.4583 7.99085 1.17571 9.77951 1.4583 10.9052C1.74088 12.0308 8.115 13.2701 10.0575 13.8195C12 14.3689 17.0979 13.7099 17.0979 13.7099C17.0979 13.7099 22.5181 11.3078 22.9627 10.9052C23.4073 10.5025 23.5025 9.8504 22.9627 9.44801C22.4228 9.04563 21.7723 9.17093 21.0077 9.44801C20.2432 9.72509 17.3322 11.1964 16.7051 11.1964C16.078 11.1964 15.6501 11.2232 14.8866 10.6542Z" stroke="#43A047"/>
<path d="M17.4777 1.14746C17.9724 0.675639 18.684 0.454521 19.3879 0.566406C20.4523 0.735961 21.2021 1.60546 21.2023 2.59082V2.69434C21.2023 3.28899 20.9438 3.8634 20.4787 4.27637V4.27734L17.0949 7.29004C17.0485 7.33139 16.9819 7.35837 16.9084 7.3584C16.8348 7.3584 16.7683 7.33141 16.7219 7.29004L13.3381 4.27734V4.27637L13.173 4.11426C12.8121 3.7196 12.6144 3.21462 12.6144 2.69434V2.59082C12.6146 1.66713 13.2733 0.84534 14.2326 0.606445L14.4289 0.566406C15.1326 0.45458 15.8434 0.675763 16.3381 1.14746L16.5637 1.36133L16.9084 1.69043L17.2531 1.36133L17.4777 1.14746Z" stroke="#43A047"/>
</svg>
