<svg width="18" height="13" viewBox="0 0 18 13" fill="none" xmlns="http://www.w3.org/2000/svg">
<path d="M6.72467 8.86635L9.63644 10.0041C9.63644 10.0041 10.4071 10.0232 10.9014 9.80813M10.9014 9.80813C10.9014 9.80813 11.435 9.35737 11.0923 8.86635C10.7497 8.37532 5.26879 6.59082 5.26879 6.59082C5.26879 6.59082 3.81291 6.59082 2.35703 6.59082C1.55297 6.59082 0.901148 7.72858 0.901148 7.72858C0.901148 7.72858 0.690704 9.12518 0.901148 10.0041C1.11159 10.883 5.85851 11.8506 7.30514 12.2796C8.75176 12.7086 12.5482 12.194 12.5482 12.194C12.5482 12.194 16.5848 10.3185 16.9158 10.0041C17.2469 9.68973 17.3179 9.18053 16.9158 8.86635C16.5138 8.55216 16.0293 8.65 15.46 8.86635C14.8906 9.0827 12.7227 10.2315 12.2557 10.2315C11.7887 10.2315 11.47 10.2525 10.9014 9.80813Z" stroke="black"/>
<path d="M11.2743 4.494L8.36259 3.35624C8.36259 3.35624 7.59194 3.33719 7.09758 3.55222M7.09758 3.55222C7.09758 3.55222 6.56405 4.00298 6.9067 4.494C7.24935 4.98503 12.7302 6.76953 12.7302 6.76953C12.7302 6.76953 14.1861 6.76953 15.642 6.76953C16.4461 6.76953 17.0979 5.63177 17.0979 5.63177C17.0979 5.63177 17.3083 4.23517 17.0979 3.35624C16.8874 2.47731 12.1405 1.50972 10.6939 1.08071C9.24726 0.651709 5.45082 1.1663 5.45082 1.1663C5.45082 1.1663 1.41426 3.04186 1.08318 3.35624C0.752093 3.67062 0.681145 4.17982 1.08318 4.494C1.48521 4.80819 1.9697 4.71035 2.53906 4.494C3.10842 4.27766 5.27632 3.12888 5.74331 3.12888C6.2103 3.12888 6.52902 3.1079 7.09758 3.55222Z" stroke="black"/>
</svg>
