<svg width="18" height="13" viewBox="0 0 18 13" fill="none" xmlns="http://www.w3.org/2000/svg">
<path d="M11.3451 8.86598C11.6877 9.357 11.1542 9.80776 11.1542 9.80776C11.7228 10.2521 12.0415 10.2311 12.5085 10.2311C12.9755 10.2311 15.1434 9.08233 15.7127 8.86598C16.2821 8.64963 16.7666 8.5518 17.1686 8.86598C17.5706 9.18017 17.4997 9.68937 17.1686 10.0037C16.8375 10.3181 12.8009 12.1937 12.8009 12.1937C12.8009 12.1937 9.00451 12.7083 7.55788 12.2793C6.11126 11.8503 1.36434 10.8827 1.15389 10.0037C0.94345 9.12481 1.15389 7.72822 1.15389 7.72822C1.15389 7.72822 1.80572 6.59045 2.60978 6.59045H5.52154C5.52154 6.59045 11.0024 8.37496 11.3451 8.86598Z" fill="#43A047"/>
<path d="M6.97742 8.86598L9.88918 10.0037C9.88918 10.0037 10.6598 10.0228 11.1542 9.80776M11.1542 9.80776C11.1542 9.80776 11.6877 9.357 11.3451 8.86598C11.0024 8.37496 5.52154 6.59045 5.52154 6.59045C5.52154 6.59045 4.06566 6.59045 2.60978 6.59045C1.80572 6.59045 1.15389 7.72822 1.15389 7.72822C1.15389 7.72822 0.94345 9.12481 1.15389 10.0037C1.36434 10.8827 6.11126 11.8503 7.55788 12.2793C9.00451 12.7083 12.8009 12.1937 12.8009 12.1937C12.8009 12.1937 16.8375 10.3181 17.1686 10.0037C17.4997 9.68937 17.5706 9.18017 17.1686 8.86598C16.7666 8.5518 16.2821 8.64963 15.7127 8.86598C15.1434 9.08233 12.9755 10.2311 12.5085 10.2311C12.0415 10.2311 11.7228 10.2521 11.1542 9.80776Z" stroke="#43A047"/>
<path d="M7.15945 4.494C6.8168 4.00298 7.35032 3.55222 7.35032 3.55222C6.78176 3.1079 6.46304 3.12888 5.99605 3.12888C5.52906 3.12888 3.36117 4.27766 2.7918 4.494C2.22244 4.71035 1.73795 4.80819 1.33592 4.494C0.933891 4.17982 1.00484 3.67062 1.33592 3.35624C1.667 3.04186 5.70357 1.1663 5.70357 1.1663C5.70357 1.1663 9.50001 0.651709 10.9466 1.08072C12.3933 1.50972 17.1402 2.47731 17.3506 3.35624C17.5611 4.23517 17.3506 5.63177 17.3506 5.63177C17.3506 5.63177 16.6988 6.76953 15.8947 6.76953H12.983C12.983 6.76953 7.5021 4.98503 7.15945 4.494Z" fill="#43A047"/>
<path d="M11.5271 4.494L8.61533 3.35624C8.61533 3.35624 7.84468 3.33719 7.35032 3.55222M7.35032 3.55222C7.35032 3.55222 6.8168 4.00298 7.15945 4.494C7.5021 4.98503 12.983 6.76953 12.983 6.76953C12.983 6.76953 14.4389 6.76953 15.8947 6.76953C16.6988 6.76953 17.3506 5.63177 17.3506 5.63177C17.3506 5.63177 17.5611 4.23517 17.3506 3.35624C17.1402 2.47731 12.3933 1.50972 10.9466 1.08071C9.50001 0.651709 5.70357 1.1663 5.70357 1.1663C5.70357 1.1663 1.667 3.04186 1.33592 3.35624C1.00484 3.67062 0.933891 4.17982 1.33592 4.494C1.73795 4.80819 2.22244 4.71035 2.7918 4.494C3.36116 4.27766 5.52906 3.12888 5.99605 3.12888C6.46304 3.12888 6.78177 3.1079 7.35032 3.55222Z" stroke="#43A047"/>
</svg>
