<svg width="19" height="24" viewBox="0 0 19 24" fill="none" xmlns="http://www.w3.org/2000/svg">
<path d="M1.70483 1.49512C1.70483 0.672047 2.3698 0.00708008 3.19287 0.00708008C4.01594 0.00708008 4.68091 0.672047 4.68091 1.49512V11.1674H1.70483V1.49512ZM10.6331 8.9353C10.6331 8.11223 11.298 7.44727 12.1211 7.44727C12.9442 7.44727 13.6091 8.11223 13.6091 8.9353V11.9114C13.6091 12.7344 12.9442 13.3994 12.1211 13.3994C11.298 13.3994 10.6331 12.7344 10.6331 11.9114V8.9353ZM7.65698 5.95923C8.48005 5.95923 9.14502 6.6242 9.14502 7.44727V9.67932C9.14502 10.5024 8.48005 11.1674 7.65698 11.1674C6.83391 11.1674 6.16895 10.5024 6.16895 9.67932V7.44727C6.16895 6.6242 6.83391 5.95923 7.65698 5.95923ZM15.0972 10.4233C15.0972 9.60027 15.7621 8.9353 16.5852 8.9353C17.4083 8.9353 18.0732 9.60027 18.0732 10.4233V13.3994C18.0732 14.2225 17.4083 14.8875 16.5852 14.8875C15.7621 14.8875 15.0972 14.2225 15.0972 13.3994V10.4233ZM10.6331 14.5154V14.4875C11.0702 14.7386 11.577 14.8875 12.1211 14.8875C12.7349 14.8875 13.3022 14.7014 13.7765 14.3852C14.1811 15.5431 15.2878 16.3755 16.5852 16.3755C17.1293 16.3755 17.6361 16.2313 18.0732 15.9756V16.3755C18.0732 20.4862 14.7438 23.8157 10.6331 23.8157H7.76393C5.79229 23.8157 3.89969 23.0298 2.50465 21.6348L1.96059 21.0954C0.844563 19.9793 0.216797 18.4634 0.216797 16.887V15.6315C0.216797 13.99 1.55138 12.6554 3.19287 12.6554H7.28497C8.31265 12.6554 9.14502 13.4878 9.14502 14.5154C9.14502 15.5431 8.31265 16.3755 7.28497 16.3755H4.68091C4.2717 16.3755 3.93689 16.7103 3.93689 17.1195C3.93689 17.5287 4.2717 17.8635 4.68091 17.8635H7.28497C9.13572 17.8635 10.6331 16.3662 10.6331 14.5154Z" fill="#FF9800"/>
</svg>
