<svg width="20" height="17" viewBox="0 0 20 17" fill="none" xmlns="http://www.w3.org/2000/svg">
<path d="M11.3885 4.94824C14.3661 4.94824 16.7684 7.32564 16.7684 10.2432C16.7684 13.1607 14.3661 15.5381 11.3885 15.5381C8.41095 15.538 6.00958 13.1606 6.00958 10.2432C6.00959 7.32572 8.41095 4.94838 11.3885 4.94824Z" stroke="black" stroke-opacity="0.7"/>
<path d="M10.2785 0.788086H12.4992C12.7753 0.788176 12.9992 1.012 12.9992 1.28809V2.44824C12.9992 3.27657 12.3275 3.94815 11.4992 3.94824H11.2785C10.4501 3.94824 9.77855 3.27663 9.7785 2.44824V1.28809C9.7785 1.01194 10.0024 0.788086 10.2785 0.788086Z" stroke="black" stroke-opacity="0.7"/>
<path d="M3.7949 4.41162L4.51126 6.58476H6.82945L4.954 7.92784L5.67036 10.101L3.7949 8.75791L1.91945 10.101L2.63581 7.92784L0.760352 6.58476H3.07854L3.7949 4.41162Z" fill="#FAB13C"/>
<path d="M16.142 0.0380859L16.8584 2.21123H19.1766L17.3011 3.5543L18.0175 5.72745L16.142 4.38437L14.2666 5.72745L14.9829 3.5543L13.1075 2.21123H15.4256L16.142 0.0380859Z" fill="#FAB13C"/>
<path d="M13.7627 6.32812L14.479 8.50127H16.7972L14.9218 9.84434L15.6381 12.0175L13.7627 10.6744L11.8872 12.0175L12.6036 9.84434L10.7281 8.50127H13.0463L13.7627 6.32812Z" fill="#FAB13C"/>
</svg>
