<svg width="17" height="18" viewBox="0 0 17 18" fill="none" xmlns="http://www.w3.org/2000/svg">
<mask id="path-1-outside-1_2665_94420" maskUnits="userSpaceOnUse" x="-0.997711" y="-0.999268" width="18" height="20" fill="black">
<rect fill="white" x="-0.997711" y="-0.999268" width="18" height="20"/>
<path d="M6.79721 1.71265C7.60865 0.747879 9.10036 0.765284 9.88901 1.74878L14.9622 8.0769C15.9562 9.31644 15.1738 11.1216 13.6634 11.3103C13.7092 11.4249 13.7357 11.5495 13.7357 11.6804V16.0066C13.7357 16.5588 13.2879 17.0066 12.7357 17.0066H3.6644C3.11231 17.0064 2.66442 16.5587 2.6644 16.0066V11.6804C2.6644 11.5493 2.68984 11.424 2.73569 11.3093C1.21177 11.1121 0.441392 9.27085 1.47592 8.04077L6.79721 1.71265Z"/>
</mask>
<path d="M6.79721 1.71265L6.03191 1.06897L6.03184 1.06905L6.79721 1.71265ZM9.88901 1.74878L10.6692 1.12328L10.6692 1.12319L9.88901 1.74878ZM14.9622 8.0769L14.182 8.70241L14.1821 8.70249L14.9622 8.0769ZM13.6634 11.3103L13.5395 10.318L12.2546 10.4785L12.7347 11.6811L13.6634 11.3103ZM13.7357 16.0066L14.7357 16.0066V16.0066H13.7357ZM12.7357 17.0066L12.7357 18.0066L12.7357 18.0066L12.7357 17.0066ZM3.6644 17.0066L3.66401 18.0066H3.6644V17.0066ZM2.6644 16.0066L1.6644 16.0066L1.6644 16.0066L2.6644 16.0066ZM2.73569 11.3093L3.66426 11.6805L4.14285 10.4831L2.86402 10.3176L2.73569 11.3093ZM1.47592 8.04077L2.24124 8.68443L2.24129 8.68437L1.47592 8.04077ZM6.79721 1.71265L7.56251 2.35632C7.96826 1.87391 8.71456 1.88265 9.10886 2.37437L9.88901 1.74878L10.6692 1.12319C9.48616 -0.352086 7.24904 -0.378147 6.03191 1.06897L6.79721 1.71265ZM9.88901 1.74878L9.10879 2.37428L14.182 8.70241L14.9622 8.0769L15.7425 7.4514L10.6692 1.12328L9.88901 1.74878ZM14.9622 8.0769L14.1821 8.70249C14.6757 9.31809 14.291 10.2241 13.5395 10.318L13.6634 11.3103L13.7874 12.3026C16.0566 12.0191 17.2367 9.31478 15.7424 7.45132L14.9622 8.0769ZM13.6634 11.3103L12.7347 11.6811C12.736 11.6842 12.7362 11.6856 12.7361 11.6851C12.7359 11.6844 12.7357 11.6827 12.7357 11.6804H13.7357H14.7357C14.7357 11.4129 14.6813 11.1629 14.5922 10.9395L13.6634 11.3103ZM13.7357 11.6804H12.7357V16.0066H13.7357H14.7357V11.6804H13.7357ZM13.7357 16.0066L12.7357 16.0066L12.7356 16.0066L12.7357 17.0066L12.7357 18.0066C13.8402 18.0065 14.7356 17.1111 14.7357 16.0066L13.7357 16.0066ZM12.7357 17.0066V16.0066H3.6644V17.0066V18.0066H12.7357V17.0066ZM3.6644 17.0066L3.66478 16.0066L3.6644 16.0066L2.6644 16.0066L1.6644 16.0066C1.66444 17.1114 2.56028 18.0062 3.66401 18.0066L3.6644 17.0066ZM2.6644 16.0066H3.6644V11.6804H2.6644H1.6644V16.0066H2.6644ZM2.6644 11.6804H3.6644L3.66426 11.6805L2.73569 11.3093L1.80711 10.9382C1.71526 11.168 1.6644 11.4191 1.6644 11.6804H2.6644ZM2.73569 11.3093L2.86402 10.3176C2.10573 10.2195 1.72779 9.29493 2.24124 8.68443L1.47592 8.04077L0.710605 7.39712C-0.845005 9.24677 0.317813 12.0048 2.60736 12.3011L2.73569 11.3093ZM1.47592 8.04077L2.24129 8.68437L7.56258 2.35624L6.79721 1.71265L6.03184 1.06905L0.710554 7.39718L1.47592 8.04077Z" fill="#43A047" mask="url(#path-1-outside-1_2665_94420)"/>
<line x1="3.45557" y1="9.0741" x2="12.9449" y2="9.0741" stroke="#43A047"/>
<line x1="3.45557" y1="11.2166" x2="12.9449" y2="11.2166" stroke="#43A047"/>
</svg>
