<svg width="17" height="18" viewBox="0 0 17 18" fill="none" xmlns="http://www.w3.org/2000/svg">
<mask id="path-1-outside-1_2665_94412" maskUnits="userSpaceOnUse" x="-0.99704" y="-0.000244141" width="18" height="19" fill="black">
<rect fill="white" x="-0.99704" y="-0.000244141" width="18" height="19"/>
<path d="M6.79788 1.71265C7.60932 0.747836 9.10004 0.765264 9.8887 1.74878L14.9629 8.0769C15.9564 9.31627 15.174 11.1203 13.6641 11.3093C13.7099 11.4239 13.7353 11.5486 13.7354 11.6794V16.0056C13.7354 16.5579 13.2877 17.0056 12.7354 17.0056H3.66507C3.11278 17.0056 2.66507 16.5579 2.66507 16.0056V11.6794C2.66512 11.5487 2.68973 11.4238 2.73538 11.3093C1.21184 11.1119 0.441585 9.27075 1.47562 8.04077L6.79788 1.71265Z"/>
</mask>
<path d="M6.79788 1.71265C7.60932 0.747836 9.10004 0.765264 9.8887 1.74878L14.9629 8.0769C15.9564 9.31627 15.174 11.1203 13.6641 11.3093C13.7099 11.4239 13.7353 11.5486 13.7354 11.6794V16.0056C13.7354 16.5579 13.2877 17.0056 12.7354 17.0056H3.66507C3.11278 17.0056 2.66507 16.5579 2.66507 16.0056V11.6794C2.66512 11.5487 2.68973 11.4238 2.73538 11.3093C1.21184 11.1119 0.441585 9.27075 1.47562 8.04077L6.79788 1.71265Z" fill="#43A047"/>
<path d="M6.79788 1.71265L7.56319 2.35631L7.5632 2.3563L6.79788 1.71265ZM9.8887 1.74878L10.6689 1.1232L10.6689 1.12319L9.8887 1.74878ZM14.9629 8.0769L15.7432 7.45145L15.7431 7.45133L14.9629 8.0769ZM13.6641 11.3093L13.5398 10.3171L12.2551 10.4779L12.7354 11.6803L13.6641 11.3093ZM13.7354 11.6794L14.7354 11.6794L14.7354 11.6791L13.7354 11.6794ZM2.66507 11.6794L1.66507 11.6791V11.6794H2.66507ZM2.73538 11.3093L3.6642 11.6799L4.14162 10.4832L2.86388 10.3176L2.73538 11.3093ZM1.47562 8.04077L0.710307 7.39711L0.710171 7.39727L1.47562 8.04077ZM6.79788 1.71265L7.5632 2.3563C7.96892 1.8739 8.71422 1.88261 9.10855 2.37437L9.8887 1.74878L10.6689 1.12319C9.48587 -0.352081 7.24972 -0.378224 6.03257 1.06899L6.79788 1.71265ZM9.8887 1.74878L9.10854 2.37435L14.1828 8.70248L14.9629 8.0769L15.7431 7.45133L10.6689 1.1232L9.8887 1.74878ZM14.9629 8.0769L14.1827 8.70236C14.6757 9.31742 14.2916 10.2229 13.5398 10.3171L13.6641 11.3093L13.7883 12.3016C16.0563 12.0176 17.2371 9.31511 15.7432 7.45145L14.9629 8.0769ZM13.6641 11.3093L12.7354 11.6803L12.7354 11.6798L13.7354 11.6794L14.7354 11.6791C14.7353 11.4173 14.6841 11.1671 14.5927 10.9384L13.6641 11.3093ZM13.7354 11.6794H12.7354V16.0056H13.7354H14.7354V11.6794H13.7354ZM13.7354 16.0056H12.7354V17.0056V18.0056C13.84 18.0056 14.7354 17.1102 14.7354 16.0056H13.7354ZM12.7354 17.0056V16.0056H3.66507V17.0056V18.0056H12.7354V17.0056ZM3.66507 17.0056V16.0056H2.66507H1.66507C1.66507 17.1102 2.5605 18.0056 3.66507 18.0056V17.0056ZM2.66507 16.0056H3.66507V11.6794H2.66507H1.66507V16.0056H2.66507ZM2.66507 11.6794L3.66507 11.6798L3.6642 11.6799L2.73538 11.3093L1.80657 10.9388C1.71365 11.1717 1.66517 11.4223 1.66507 11.6791L2.66507 11.6794ZM2.73538 11.3093L2.86388 10.3176C2.10586 10.2194 1.72783 9.29477 2.24106 8.68427L1.47562 8.04077L0.710171 7.39727C-0.844656 9.24674 0.317809 12.0044 2.60688 12.301L2.73538 11.3093ZM1.47562 8.04077L2.24093 8.68443L7.56319 2.35631L6.79788 1.71265L6.03257 1.06898L0.710307 7.39711L1.47562 8.04077Z" fill="#43A047" mask="url(#path-1-outside-1_2665_94412)"/>
<line x1="3.45572" y1="9.07373" x2="12.945" y2="9.07373" stroke="white"/>
<line x1="3.45572" y1="11.2162" x2="12.945" y2="11.2162" stroke="white"/>
</svg>
