<svg width="23" height="18" viewBox="0 0 23 18" fill="none" xmlns="http://www.w3.org/2000/svg">
<path d="M8.58568 11.8776L12.3178 13.4331C12.3178 13.4331 13.3056 13.4592 13.9393 13.1652M13.9393 13.1652C13.9393 13.1652 14.6231 12.5489 14.1839 11.8776C13.7447 11.2063 6.7196 8.76648 6.7196 8.76648C6.7196 8.76648 4.85352 8.76648 2.98743 8.76648C1.95682 8.76648 1.12135 10.322 1.12135 10.322C1.12135 10.322 0.85161 12.2315 1.12135 13.4331C1.39109 14.6348 7.47548 15.9577 9.32969 16.5443C11.1839 17.1308 16.05 16.4272 16.05 16.4272C16.05 16.4272 21.2239 13.863 21.6483 13.4331C22.0726 13.0033 22.1636 12.3071 21.6483 11.8776C21.133 11.448 20.512 11.5818 19.7822 11.8776C19.0524 12.1734 16.2737 13.744 15.6751 13.744C15.0766 13.744 14.668 13.7727 13.9393 13.1652Z" stroke="#43A047" stroke-width="2"/>
<path d="M14.4172 5.90012L10.6851 4.34456C10.6851 4.34456 9.6973 4.31852 9.06365 4.61251M9.06365 4.61251C9.06365 4.61251 8.3798 5.22879 8.819 5.90012C9.25819 6.57145 16.2833 9.01123 16.2833 9.01123C16.2833 9.01123 18.1494 9.01123 20.0155 9.01123C21.0461 9.01123 21.8816 7.45567 21.8816 7.45567C21.8816 7.45567 22.1513 5.54624 21.8816 4.34456C21.6118 3.14289 15.5275 1.81999 13.6732 1.23345C11.819 0.646914 6.95291 1.35047 6.95291 1.35047C6.95291 1.35047 1.77903 3.91475 1.35466 4.34456C0.930296 4.77438 0.839357 5.47056 1.35466 5.90012C1.86997 6.32967 2.49096 6.19591 3.22075 5.90012C3.95053 5.60433 6.72924 4.03372 7.32781 4.03372C7.92637 4.03372 8.3349 4.00503 9.06365 4.61251Z" stroke="#43A047" stroke-width="2"/>
</svg>
