<svg width="18" height="24" viewBox="0 0 18 24" fill="none" xmlns="http://www.w3.org/2000/svg">
<path d="M1.48804 1.48804C1.48804 0.664967 2.153 0 2.97607 0C3.79914 0 4.46411 0.664967 4.46411 1.48804V11.1603H1.48804V1.48804ZM10.4163 8.92822C10.4163 8.10515 11.0812 7.44019 11.9043 7.44019C12.7274 7.44019 13.3923 8.10515 13.3923 8.92822V11.9043C13.3923 12.7274 12.7274 13.3923 11.9043 13.3923C11.0812 13.3923 10.4163 12.7274 10.4163 11.9043V8.92822ZM7.44019 5.95215C8.26326 5.95215 8.92822 6.61711 8.92822 7.44019V9.67224C8.92822 10.4953 8.26326 11.1603 7.44019 11.1603C6.61711 11.1603 5.95215 10.4953 5.95215 9.67224V7.44019C5.95215 6.61711 6.61711 5.95215 7.44019 5.95215ZM14.8804 10.4163C14.8804 9.59319 15.5453 8.92822 16.3684 8.92822C17.1915 8.92822 17.8564 9.59319 17.8564 10.4163V13.3923C17.8564 14.2154 17.1915 14.8804 16.3684 14.8804C15.5453 14.8804 14.8804 14.2154 14.8804 13.3923V10.4163ZM10.4163 14.5084V14.4805C10.8534 14.7316 11.3602 14.8804 11.9043 14.8804C12.5181 14.8804 13.0854 14.6944 13.5597 14.3782C13.9643 15.536 15.071 16.3684 16.3684 16.3684C16.9125 16.3684 17.4193 16.2243 17.8564 15.9685V16.3684C17.8564 20.4791 14.527 23.8086 10.4163 23.8086H7.54714C5.57549 23.8086 3.68289 23.0227 2.28786 21.6277L1.74379 21.0883C0.627766 19.9722 0 18.4563 0 16.8799V15.6244C0 13.9829 1.33458 12.6483 2.97607 12.6483H7.06818C8.09585 12.6483 8.92822 13.4807 8.92822 14.5084C8.92822 15.536 8.09585 16.3684 7.06818 16.3684H4.46411C4.0549 16.3684 3.72009 16.7032 3.72009 17.1124C3.72009 17.5216 4.0549 17.8564 4.46411 17.8564H7.06818C8.91892 17.8564 10.4163 16.3591 10.4163 14.5084Z" fill="black" fill-opacity="0.5"/>
</svg>
