<svg width="15" height="14" viewBox="0 0 15 14" fill="none" xmlns="http://www.w3.org/2000/svg">
<mask id="path-1-inside-1_2084_29391" fill="white">
<path d="M7.15308 0.0224609C8.86848 0.0224609 10.2595 1.73444 10.2595 3.8457C10.2594 5.12998 9.74318 6.26494 8.95386 6.95801C11.8766 7.53216 14.0817 10.1072 14.0818 13.1982H0.224365C0.224496 10.1075 2.42896 7.53247 5.35132 6.95801C4.56237 6.26488 4.04773 5.12962 4.04761 3.8457C4.04761 1.73448 5.43772 0.0225209 7.15308 0.0224609Z"/>
</mask>
<path d="M7.15308 0.0224609C8.86848 0.0224609 10.2595 1.73444 10.2595 3.8457C10.2594 5.12998 9.74318 6.26494 8.95386 6.95801C11.8766 7.53216 14.0817 10.1072 14.0818 13.1982H0.224365C0.224496 10.1075 2.42896 7.53247 5.35132 6.95801C4.56237 6.26488 4.04773 5.12962 4.04761 3.8457C4.04761 1.73448 5.43772 0.0225209 7.15308 0.0224609Z" fill="white"/>
<path d="M7.15308 0.0224609V-0.477539H7.15306L7.15308 0.0224609ZM10.2595 3.8457L10.7595 3.84575V3.8457H10.2595ZM8.95386 6.95801L8.62395 6.58229L7.86037 7.25276L8.85748 7.44863L8.95386 6.95801ZM14.0818 13.1982V13.6982H14.5818L14.5818 13.1982L14.0818 13.1982ZM0.224365 13.1982L-0.275635 13.1982L-0.275656 13.6982H0.224365V13.1982ZM5.35132 6.95801L5.44776 7.44862L6.44434 7.25272L5.68132 6.58238L5.35132 6.95801ZM4.04761 3.8457H3.54761V3.84575L4.04761 3.8457ZM7.15308 0.0224609V0.522461C8.50034 0.522461 9.75952 1.90858 9.75952 3.8457H10.2595H10.7595C10.7595 1.5603 9.23662 -0.477539 7.15308 -0.477539V0.0224609ZM10.2595 3.8457L9.75952 3.84565C9.75941 5.00099 9.29445 5.99356 8.62395 6.58229L8.95386 6.95801L9.28376 7.33373C10.1919 6.53631 10.7594 5.25897 10.7595 3.84575L10.2595 3.8457ZM8.95386 6.95801L8.85748 7.44863C11.5504 7.97762 13.5817 10.3509 13.5818 13.1983L14.0818 13.1982L14.5818 13.1982C14.5816 9.86358 12.2029 7.08669 9.05024 6.46738L8.95386 6.95801ZM14.0818 13.1982V12.6982H0.224365V13.1982V13.6982H14.0818V13.1982ZM0.224365 13.1982L0.724365 13.1983C0.724486 10.3511 2.75529 7.97789 5.44776 7.44862L5.35132 6.95801L5.25488 6.4674C2.10263 7.08705 -0.275493 9.86392 -0.275635 13.1982L0.224365 13.1982ZM5.35132 6.95801L5.68132 6.58238C5.01145 5.99387 4.54772 5.00113 4.54761 3.84565L4.04761 3.8457L3.54761 3.84575C3.54774 5.25811 4.11328 6.5359 5.02131 7.33364L5.35132 6.95801ZM4.04761 3.8457H4.54761C4.54761 1.90841 5.80603 0.522508 7.15309 0.522461L7.15308 0.0224609L7.15306 -0.477539C5.06941 -0.477466 3.54761 1.56054 3.54761 3.8457H4.04761Z" fill="#43A047" fill-opacity="0.5" mask="url(#path-1-inside-1_2084_29391)"/>
</svg>
