<svg width="17" height="18" viewBox="0 0 17 18" fill="none" xmlns="http://www.w3.org/2000/svg">
<mask id="path-1-inside-1_487_5581" fill="white">
<path d="M9.68763 0.968565C10.4313 0.0633343 11.7683 -0.0681099 12.6736 0.675357L12.8306 0.8043L11.9168 1.91653C11.3032 2.66372 11.4111 3.76719 12.1583 4.38099C12.9054 4.99468 14.0088 4.88653 14.6227 4.13957L15.5365 3.02734L15.7259 3.18294C16.631 3.92677 16.7614 5.26381 16.0177 6.16908L15.2515 7.10172C14.4191 8.11477 13.202 8.62467 11.9855 8.59564L5.29658 16.7374C4.33008 17.9138 2.59292 18.0838 1.4164 17.1175C0.239881 16.151 0.0689735 14.4133 1.03554 13.2367L7.99972 4.75992C7.93632 3.76056 8.23575 2.73591 8.92141 1.90121L9.68763 0.968565Z"/>
</mask>
<path d="M9.68763 0.968565C10.4313 0.0633343 11.7683 -0.0681099 12.6736 0.675357L12.8306 0.8043L11.9168 1.91653C11.3032 2.66372 11.4111 3.76719 12.1583 4.38099C12.9054 4.99468 14.0088 4.88653 14.6227 4.13957L15.5365 3.02734L15.7259 3.18294C16.631 3.92677 16.7614 5.26381 16.0177 6.16908L15.2515 7.10172C14.4191 8.11477 13.202 8.62467 11.9855 8.59564L5.29658 16.7374C4.33008 17.9138 2.59292 18.0838 1.4164 17.1175C0.239881 16.151 0.0689735 14.4133 1.03554 13.2367L7.99972 4.75992C7.93632 3.76056 8.23575 2.73591 8.92141 1.90121L9.68763 0.968565Z" fill="white"/>
<path d="M12.6736 0.675357L13.3084 -0.0973211L13.3083 -0.0974577L12.6736 0.675357ZM12.8306 0.8043L13.6033 1.4391L14.2381 0.666421L13.4654 0.0316224L12.8306 0.8043ZM11.9168 1.91653L11.1442 1.28173L11.1441 1.28185L11.9168 1.91653ZM12.1583 4.38099L11.5235 5.15367L11.5235 5.15373L12.1583 4.38099ZM14.6227 4.13957L15.3953 4.77448L15.3954 4.77437L14.6227 4.13957ZM15.5365 3.02734L16.1713 2.25466L15.3986 1.61986L14.7638 2.39254L15.5365 3.02734ZM15.7259 3.18294L16.3608 2.41035L16.3607 2.41026L15.7259 3.18294ZM15.2515 7.10172L16.0241 7.73657L16.0242 7.73652L15.2515 7.10172ZM11.9855 8.59564L12.0094 7.59592L11.5222 7.5843L11.2128 7.96084L11.9855 8.59564ZM5.29658 16.7374L6.06925 17.3722L6.06926 17.3722L5.29658 16.7374ZM1.4164 17.1175L0.781602 17.8902L0.781709 17.8903L1.4164 17.1175ZM1.03554 13.2367L0.262859 12.6019L0.262852 12.6019L1.03554 13.2367ZM7.99972 4.75992L8.7724 5.39472L9.02268 5.09008L8.99772 4.69661L7.99972 4.75992ZM8.92141 1.90121L8.14873 1.26641L8.14869 1.26646L8.92141 1.90121ZM9.68763 0.968565L10.4603 1.60336C10.8537 1.12457 11.5606 1.05534 12.039 1.44817L12.6736 0.675357L13.3083 -0.0974577C11.9759 -1.19156 10.009 -0.997904 8.91495 0.333767L9.68763 0.968565ZM12.6736 0.675357L12.0388 1.44803L12.1958 1.57698L12.8306 0.8043L13.4654 0.0316224L13.3084 -0.0973211L12.6736 0.675357ZM12.8306 0.8043L12.0579 0.169501L11.1442 1.28173L11.9168 1.91653L12.6895 2.55133L13.6033 1.4391L12.8306 0.8043ZM11.9168 1.91653L11.1441 1.28185C10.18 2.45562 10.3495 4.18918 11.5235 5.15367L12.1583 4.38099L12.793 3.60831C12.4728 3.3452 12.4263 2.87182 12.6896 2.55122L11.9168 1.91653ZM12.1583 4.38099L11.5235 5.15373C12.6974 6.11796 14.4309 5.94799 15.3953 4.77448L14.6227 4.13957L13.8501 3.50465C13.5868 3.82507 13.1133 3.8714 12.793 3.60826L12.1583 4.38099ZM14.6227 4.13957L15.3954 4.77437L16.3091 3.66213L15.5365 3.02734L14.7638 2.39254L13.85 3.50477L14.6227 4.13957ZM15.5365 3.02734L14.9017 3.80001L15.0911 3.95561L15.7259 3.18294L16.3607 2.41026L16.1713 2.25466L15.5365 3.02734ZM15.7259 3.18294L15.091 3.95552C15.5691 4.34849 15.6385 5.05539 15.245 5.53428L16.0177 6.16908L16.7904 6.80388C17.8844 5.47222 17.6929 3.50505 16.3608 2.41035L15.7259 3.18294ZM16.0177 6.16908L15.245 5.53428L14.4788 6.46693L15.2515 7.10172L16.0242 7.73652L16.7904 6.80388L16.0177 6.16908ZM15.2515 7.10172L14.4788 6.46688C13.8503 7.23181 12.9322 7.61794 12.0094 7.59592L11.9855 8.59564L11.9617 9.59536C13.4719 9.63139 14.9879 8.99773 16.0241 7.73657L15.2515 7.10172ZM11.9855 8.59564L11.2128 7.96084L4.5239 16.1026L5.29658 16.7374L6.06926 17.3722L12.7582 9.23044L11.9855 8.59564ZM5.29658 16.7374L4.52391 16.1026C3.90807 16.8522 2.801 16.9607 2.05109 16.3448L1.4164 17.1175L0.781709 17.8903C2.38483 19.207 4.75208 18.9755 6.06925 17.3722L5.29658 16.7374ZM1.4164 17.1175L2.0512 16.3449C1.30107 15.7286 1.19252 14.621 1.80822 13.8715L1.03554 13.2367L0.262852 12.6019C-1.05458 14.2056 -0.821308 16.5733 0.781602 17.8902L1.4164 17.1175ZM1.03554 13.2367L1.80821 13.8715L8.7724 5.39472L7.99972 4.75992L7.22705 4.12512L0.262859 12.6019L1.03554 13.2367ZM7.99972 4.75992L8.99772 4.69661C8.94967 3.93923 9.17603 3.16667 9.69413 2.53596L8.92141 1.90121L8.14869 1.26646C7.29546 2.30515 6.92298 3.5819 7.00173 4.82323L7.99972 4.75992ZM8.92141 1.90121L9.69409 2.53601L10.4603 1.60336L9.68763 0.968565L8.91495 0.333767L8.14873 1.26641L8.92141 1.90121Z" fill="#3997BF" mask="url(#path-1-inside-1_487_5581)"/>
</svg>
