<svg width="110" height="97" viewBox="0 0 110 97" fill="none" xmlns="http://www.w3.org/2000/svg">
<path d="M20.625 96.25H34.375C38.1777 96.25 41.25 93.1777 41.25 89.375C41.25 85.5723 38.1777 82.5 34.375 82.5H20.625C16.8287 82.5 13.75 79.4213 13.75 75.625V20.625C13.75 16.8287 16.8287 13.75 20.625 13.75H34.375C38.1777 13.75 41.25 10.6713 41.25 6.875C41.25 3.07871 38.1777 0 34.375 0H20.625C9.23398 0 0 9.23398 0 20.625V75.625C0 87.0117 9.23398 96.25 20.625 96.25ZM108.453 44.3652L77.4941 15.1465C75.9956 13.7332 73.7988 13.3472 71.9082 14.1595C70.0169 14.9753 68.7908 16.8386 68.7908 18.8968L68.7711 34.3655L41.2711 34.3653C37.4705 34.3653 34.3918 37.444 34.3918 41.2403V54.9903C34.3918 58.7866 37.4727 61.8653 41.2711 61.8653L68.7711 61.8655L68.7908 77.1409C68.7908 79.1987 70.0169 81.0618 71.9082 81.8782C73.7995 82.6906 75.9967 82.3045 77.4941 80.8912L108.453 51.6725C110.516 49.9297 110.516 46.3203 108.453 44.3652Z" fill="#AFA8A8"/>
</svg>
