<svg width="28" height="17" viewBox="0 0 28 17" fill="none" xmlns="http://www.w3.org/2000/svg">
<path d="M10.39 10.7541L15.0108 12.4194C15.0108 12.4194 16.2337 12.4473 17.0182 12.1326M17.0182 12.1326C17.0182 12.1326 17.8649 11.4728 17.3212 10.7541C16.7774 10.0354 8.07959 7.42346 8.07959 7.42346C8.07959 7.42346 5.76921 7.42346 3.45882 7.42346C2.18282 7.42346 1.14843 9.08879 1.14843 9.08879C1.14843 9.08879 0.814466 11.133 1.14843 12.4194C1.48239 13.7059 9.01544 15.1222 11.3111 15.7501C13.6068 16.378 19.6315 15.6248 19.6315 15.6248C19.6315 15.6248 26.0373 12.8796 26.5627 12.4194C27.0881 11.9593 27.2007 11.214 26.5627 10.7541C25.9247 10.2942 25.1559 10.4374 24.2523 10.7541C23.3488 11.0708 19.9085 12.7522 19.1674 12.7522C18.4263 12.7522 17.9205 12.7829 17.0182 12.1326Z" stroke="#3997BF" stroke-width="2"/>
<path d="M20.3516 1.58887C20.8397 1.13889 21.5572 0.917582 22.2783 1.02832C23.3752 1.19717 24.0732 2.04291 24.0732 2.91797V3.03613C24.0732 3.5779 23.8303 4.11591 23.3682 4.5127L23.3672 4.51367L19.4072 7.92285L15.4482 4.51367L15.4473 4.5127L15.2842 4.35742C14.9281 3.98125 14.7422 3.51019 14.7422 3.03613V2.91797C14.7422 2.04291 15.4403 1.19717 16.5371 1.02832L16.5361 1.02734C17.2574 0.916466 17.9756 1.13875 18.4639 1.58887L18.7295 1.83398L19.4072 2.45996L20.0859 1.83398L20.3516 1.58887Z" stroke="#3997BF" stroke-width="2"/>
</svg>
