<svg width="24" height="24" viewBox="0 0 24 24" fill="none" xmlns="http://www.w3.org/2000/svg">
<path d="M9.58858 0.331687C9.31597 0.0470298 8.90706 -0.0614111 8.52541 0.037993C8.14376 0.137397 7.84843 0.440128 7.74848 0.819671L7.03061 3.64365L4.21365 2.85294C3.832 2.7445 3.42309 2.85294 3.14594 3.12856C2.86879 3.40418 2.75974 3.81083 2.86879 4.19037L3.66389 6.99177L0.824225 7.71019C0.442573 7.80507 0.142704 8.10328 0.0382041 8.48283C-0.0662958 8.86237 0.047291 9.26451 0.33353 9.53561L2.43261 11.5689L0.33353 13.6021C0.047291 13.8732 -0.0617523 14.2799 0.0382041 14.6594C0.13816 15.039 0.442573 15.3327 0.824225 15.4321L3.66389 16.146L2.86879 18.9474C2.75974 19.3269 2.86879 19.7336 3.14594 20.0092C3.42309 20.2848 3.832 20.3932 4.21365 20.2848L7.03061 19.4941L7.74848 22.3181C7.84389 22.6976 8.14376 22.9958 8.52541 23.0998C8.90706 23.2037 9.31143 23.0907 9.58858 22.8106L11.6331 20.7231L13.6777 22.8106C13.9549 23.0907 14.3592 23.2037 14.7409 23.0998C15.1225 22.9958 15.4179 22.6976 15.5178 22.3181L16.2357 19.4941L19.0526 20.2848C19.4343 20.3932 19.8432 20.2848 20.1203 20.0092C20.3975 19.7336 20.5065 19.3269 20.3975 18.9474L19.6024 16.146L22.4421 15.4321C22.8237 15.3372 23.1236 15.039 23.2281 14.6594C23.3326 14.2799 23.219 13.8732 22.9373 13.6021L20.8382 11.5689L22.9373 9.53561C23.219 9.25999 23.3326 8.85785 23.2281 8.47831C23.1236 8.09877 22.8237 7.80507 22.4421 7.70567L19.6024 6.99177L20.3975 4.19037C20.5065 3.81083 20.3975 3.40418 20.1203 3.12856C19.8432 2.85294 19.4343 2.7445 19.0526 2.85294L16.2357 3.64365L15.5133 0.819671C15.4179 0.440128 15.118 0.141916 14.7363 0.037993C14.3547 -0.0659295 13.9503 0.0470298 13.6777 0.331687L11.6331 2.41917L9.58858 0.331687Z" fill="#43A047"/>
<path d="M7.57812 10.4631L8.90516 13.412L15.6878 9.72583" stroke="white"/>
</svg>
