<svg width="57" height="57" viewBox="0 0 57 57" fill="none" xmlns="http://www.w3.org/2000/svg">
<path d="M47.6357 8.14147C42.3957 2.88891 35.4173 0 28.0012 0C12.6937 0 0.237616 12.4561 0.237616 27.7635C0.237616 32.6534 1.51324 37.4308 3.93942 41.6453L0 56.0273L14.7197 52.163C18.7717 54.3765 23.3364 55.5396 27.9887 55.5396H28.0012C43.2961 55.5396 56.0273 43.0835 56.0273 27.7761C56.0273 20.3599 52.8758 13.394 47.6357 8.14147ZM28.0012 50.8623C23.8491 50.8623 19.7847 49.7493 16.2454 47.6483L15.4075 47.148L6.67826 49.4366L9.00439 40.92L8.45413 40.0445C6.1405 36.3678 4.9274 32.1282 4.9274 27.7635C4.9274 15.0448 15.2825 4.68979 28.0137 4.68979C34.1792 4.68979 39.9695 7.09096 44.3216 11.4556C48.6738 15.8202 51.3501 21.6105 51.3376 27.7761C51.3376 40.5073 40.7199 50.8623 28.0012 50.8623ZM40.6573 33.5789C39.9695 33.2287 36.5553 31.5529 35.9175 31.3278C35.2797 31.0902 34.817 30.9776 34.3543 31.678C33.8915 32.3783 32.5659 33.9291 32.1532 34.4043C31.753 34.867 31.3403 34.9295 30.6525 34.5794C26.5755 32.5409 23.8992 30.9401 21.2104 26.3253C20.4975 25.0997 21.9232 25.1873 23.2488 22.536C23.474 22.0733 23.3614 21.6731 23.1863 21.3229C23.0112 20.9727 21.6231 17.5586 21.0478 16.1704C20.485 14.8197 19.9097 15.0073 19.4845 14.9823C19.0843 14.9573 18.6216 14.9573 18.1589 14.9573C17.6961 14.9573 16.9458 15.1324 16.308 15.8202C15.6701 16.5206 13.8818 18.1964 13.8818 21.6105C13.8818 25.0247 16.3705 28.3263 16.7082 28.7891C17.0583 29.2518 21.598 36.2552 28.5639 39.2692C32.9661 41.1701 34.6919 41.3327 36.893 41.0075C38.2312 40.8074 40.995 39.3317 41.5703 37.7059C42.1456 36.0801 42.1456 34.6919 41.9705 34.4043C41.8079 34.0916 41.3452 33.9166 40.6573 33.5789Z" fill="#43A047"/>
</svg>
