<svg width="15" height="18" viewBox="0 0 15 18" fill="none" xmlns="http://www.w3.org/2000/svg">
<path d="M13.5255 4.12769C13.665 4.44264 13.5509 4.80908 13.2602 4.98973L13.2493 4.99631L10.6027 6.60176C10.3425 6.75975 10.0097 6.72864 9.7829 6.52361L8.37715 5.25226L8.08748 4.98999L7.76315 5.20907C5.74428 6.56768 4.25016 8.59487 3.55127 10.9258L3.43917 11.3004L3.77553 11.4992L5.40601 12.4678L5.40823 12.4695C5.66778 12.6217 5.79866 12.9309 5.72469 13.2275L4.9762 16.2311L4.97538 16.2322C4.89243 16.5683 4.57318 16.7896 4.22809 16.7495L4.22713 16.7497L1.53249 16.4363C1.22073 16.3992 0.973849 16.159 0.927503 15.8535C-0.135094 8.84679 4.68442 2.3039 11.6911 1.24123C11.996 1.19504 12.2985 1.35868 12.4268 1.64425L12.426 1.64536L13.5255 4.12769Z" stroke="#3997BF"/>
</svg>
