<svg width="13" height="17" viewBox="0 0 13 17" fill="none" xmlns="http://www.w3.org/2000/svg">
<path d="M6.51077 3.19976C4.83229 3.24087 3.81817 3.80263 3.81817 3.80263C3.81817 3.80263 2.72493 4.50598 2.05227 4.50598C1.75022 4.50598 1.48205 4.30338 1.27824 4.08012C0.992417 3.76703 1.07327 3.29791 1.40256 3.03091C2.26802 2.3292 4.13322 1.08972 6.51077 1.08972C9.82706 1.08972 12.5911 3.94245 12.0591 5.41029C11.527 6.87812 8.81965 6.86609 7.79145 8.1232C7.17578 8.87594 7.067 10.0562 7.08937 10.9434C7.10516 11.5695 6.62365 12.1423 5.99735 12.1423H5.29211C4.85344 12.1423 4.46598 11.8567 4.37815 11.4269C4.19993 10.5549 4.01929 9.07956 4.55396 8.1232C5.30979 6.77128 8.08577 6.31459 8.52725 5.41029C8.96872 4.50598 8.22969 3.15767 6.51077 3.19976Z" stroke="#FF5722"/>
<rect x="4.75003" y="14.2213" width="2.37499" height="1.36842" rx="0.5" stroke="#FF5722"/>
</svg>
