<svg width="12" height="18" viewBox="0 0 12 18" fill="none" xmlns="http://www.w3.org/2000/svg">
<path d="M10.9423 3.74878C11.1265 3.95414 11.1094 4.27034 10.9042 4.45483C10.6989 4.63896 10.3827 4.62179 10.1982 4.41675L9.1376 3.23608L9.13663 11.1335C9.13657 11.6858 8.6889 12.1336 8.13663 12.1335C7.58437 12.1335 7.13662 11.6858 7.13663 11.1335L7.1376 3.23608L6.07608 4.41675C5.89155 4.62178 5.57532 4.63902 5.37003 4.45483C5.16486 4.27036 5.14781 3.95414 5.33194 3.74878L7.76553 1.04272C7.86035 0.93727 7.99579 0.876722 8.1376 0.876709C8.27926 0.876839 8.41397 0.937373 8.5087 1.04272L10.9423 3.74878Z" fill="#F4C211"/>
<path d="M3.57785 16.2623C3.57785 16.8144 3.12999 17.2621 2.57785 17.2623C2.02557 17.2623 1.57785 16.8146 1.57785 16.2623L1.57785 10.272C1.57791 9.7198 2.0256 9.27203 2.57785 9.27203C3.12995 9.27221 3.57779 9.7199 3.57785 10.272L3.57785 16.2623Z" fill="#F4C211"/>
<path d="M0.855164 11.4616C0.57911 11.4616 0.355309 11.2376 0.355164 10.9616C0.355164 10.6855 0.579021 10.4616 0.855164 10.4616L9.23309 10.4616C9.50918 10.4617 9.73309 10.6855 9.73309 10.9616C9.73295 11.2376 9.50909 11.4615 9.23309 11.4616L0.855164 11.4616Z" fill="#F4C211"/>
</svg>
