<svg width="13" height="16" viewBox="0 0 13 16" fill="none" xmlns="http://www.w3.org/2000/svg">
<path d="M6.5 1.45044C6.5165 1.45044 6.53971 1.45527 6.56738 1.47095L6.5791 1.47681L10.9932 3.82251C11.2804 3.97457 11.5507 4.33886 11.6123 4.83716L11.625 5.05786C11.6193 6.46817 11.3835 8.46779 10.6631 10.3997C9.94275 12.331 8.75244 14.1573 6.86133 15.2913C6.62825 15.4311 6.37175 15.4311 6.13867 15.2913C4.24756 14.1573 3.05725 12.331 2.33691 10.3997C1.70644 8.70907 1.44737 6.96648 1.38867 5.61255L1.375 5.05786C1.37347 4.52342 1.60669 4.11165 1.88477 3.90063L2.00684 3.82251L6.42285 1.47681L6.43066 1.4729L6.43945 1.46802C6.46133 1.45535 6.48274 1.45044 6.5 1.45044ZM6 14.8977L6.75977 14.4368C8.50285 13.3785 9.58632 11.6927 10.2354 9.97095C10.8844 8.24901 11.1141 6.45259 11.125 5.10474L11.127 4.80103L10.8594 4.65942L6.73438 2.46997L6 2.07935V14.8977Z" stroke="#43A047"/>
</svg>
