<svg width="19" height="17" viewBox="0 0 19 17" fill="none" xmlns="http://www.w3.org/2000/svg">
<path d="M10.2856 1.92285C10.4702 2.12817 10.4528 2.44427 10.2475 2.62891C10.0422 2.81342 9.72604 2.7971 9.54144 2.5918L9.33344 2.36035L9.33344 6.83789C9.33331 7.39007 8.88563 7.83788 8.33344 7.83789C7.78121 7.83786 7.3335 7.3901 7.33344 6.83789L7.33344 2.35937L7.12445 2.5918C6.9398 2.79697 6.62368 2.81348 6.4184 2.62891C6.21382 2.4442 6.19697 2.12794 6.38129 1.92285L7.96136 0.166016C8.05608 0.0606692 8.19178 0.000136571 8.33344 0C8.47501 5.84492e-05 8.61074 0.060849 8.70551 0.166016L10.2856 1.92285Z" fill="#43A047"/>
<path d="M5.72302 10.1686C5.72302 10.7208 5.27518 11.1684 4.72302 11.1686C4.17074 11.1686 3.72302 10.7209 3.72302 10.1686L3.72302 6.27795C3.72309 5.72573 4.17078 5.27795 4.72302 5.27795C5.27513 5.27811 5.72295 5.72583 5.72302 6.27795L5.72302 10.1686Z" fill="#43A047"/>
<path d="M3.60367 7.22546C3.32769 7.22527 3.10367 7.00149 3.10367 6.72546C3.10381 6.44956 3.32778 6.22566 3.60367 6.22546L9.04507 6.22546C9.32113 6.22546 9.54493 6.44944 9.54507 6.72546C9.54507 7.00161 9.32122 7.22546 9.04507 7.22546L3.60367 7.22546Z" fill="#43A047"/>
<rect x="10.026" y="8.72327" width="8.21447" height="2.20282" stroke="#43A047"/>
<rect x="0.5" y="13.7203" width="17.7405" height="2.20282" stroke="#43A047"/>
</svg>
