<svg width="189" height="166" viewBox="0 0 189 166" fill="none" xmlns="http://www.w3.org/2000/svg">
<path d="M55.9373 32.8398C46.1819 32.8398 38.2739 40.7478 38.2739 50.5032C38.2739 60.2585 46.1819 68.1665 55.9373 68.1665C65.6926 68.1665 73.6006 60.2585 73.6006 50.5032C73.6006 40.7478 65.6889 32.8398 55.9373 32.8398ZM164.53 0.457031H23.2233C10.5462 0.457031 0 10.9998 0 24.0082V141.764C0 154.772 10.5428 165.315 23.2199 165.315H164.527C177.535 165.315 188.078 154.772 188.078 141.764V24.0082C188.081 10.9998 177.851 0.457031 164.53 0.457031ZM170.418 139.298L120.077 70.8896C119.157 69.1969 117.06 68.1665 114.815 68.1665C112.566 68.1665 110.465 69.1851 109.218 70.8819L69.9906 123.909L56.342 106.945C55.0758 105.37 53.0545 104.439 50.9069 104.439C48.7571 104.439 46.7376 105.37 45.468 106.945L17.6777 141.465C17.6777 141.476 17.6777 141.455 17.6777 141.465L17.663 24.0082C17.663 20.7618 20.3044 18.1204 23.5508 18.1204H164.857C168.104 18.1204 170.745 20.7618 170.745 24.0082V139.298H170.418Z" fill="#8B8989"/>
</svg>
